<?xml version="1.0" encoding="UTF-8"?>
<svg version="1.1" xmlns="http://www.w3.org/2000/svg" width="1024" height="1024">
<path d="M0 0 C0.67337402 0.01256836 1.34674805 0.02513672 2.04052734 0.03808594 C14.76881672 0.34707092 27.22762574 2.40237994 39.76757812 4.48388672 C42.05919107 4.84978323 44.35545195 5.18709004 46.65429688 5.50439453 C47.83572266 5.6692334 49.01714844 5.83407227 50.234375 6.00390625 C51.31428711 6.14771729 52.39419922 6.29152832 53.50683594 6.43969727 C54.74095215 6.71704712 54.74095215 6.71704712 56 7 C56.33 7.66 56.66 8.32 57 9 C58.59877238 9.27213147 60.20127553 9.53022428 61.8125 9.71484375 C65.91386638 10.24948615 69.95179766 11.16103654 74 12 C74 12.66 74 13.32 74 14 C76.97 14.33 79.94 14.66 83 15 C83 15.66 83 16.32 83 17 C83.77085937 17.20496094 84.54171875 17.40992188 85.3359375 17.62109375 C86.33882812 17.89050781 87.34171875 18.15992188 88.375 18.4375 C89.37273437 18.70433594 90.37046875 18.97117188 91.3984375 19.24609375 C94 20 94 20 96 21 C96.95261719 21.45890625 97.90523437 21.9178125 98.88671875 22.390625 C116.36380036 30.89566633 133.57974697 40.10704237 149 52 C149.57508301 52.43521973 150.15016602 52.87043945 150.74267578 53.31884766 C158.28970831 59.03206024 165.43395863 65.04717732 172.3359375 71.5234375 C174.51160937 73.5459829 176.72164473 75.47168264 179 77.375 C190.21925215 87.18317095 199.19555962 99.06326515 208 111 C208.46180664 111.62052246 208.92361328 112.24104492 209.39941406 112.88037109 C215.86322799 121.58678125 221.6287264 130.5829868 227 140 C227.35916504 140.61584961 227.71833008 141.23169922 228.08837891 141.86621094 C245.26658402 171.50189304 255.36847933 206.03085547 259 240 C253.35833009 240.04940499 247.71678587 240.08572193 242.07495117 240.10986328 C240.15533251 240.11992639 238.23572919 240.13357816 236.31616211 240.15087891 C233.55839248 240.17511364 230.80082536 240.18647992 228.04296875 240.1953125 C227.18350143 240.20563507 226.32403412 240.21595764 225.43852234 240.22659302 C224.23761711 240.22681961 224.23761711 240.22681961 223.01245117 240.22705078 C222.3085173 240.231492 221.60458344 240.23593323 220.87931824 240.24050903 C219 240 219 240 216 238 C216.18554443 237.2776416 216.37108887 236.5552832 216.56225586 235.81103516 C217.03155272 232.7973798 216.75876872 230.95734572 216.00390625 228.0234375 C215.66069336 226.64671875 215.66069336 226.64671875 215.31054688 225.2421875 C215.06369141 224.29601562 214.81683594 223.34984375 214.5625 222.375 C214.0817515 220.48771144 213.60376149 218.59971746 213.12890625 216.7109375 C212.91306885 215.87868652 212.69723145 215.04643555 212.47485352 214.18896484 C212 212 212 212 212 209 C211.34 208.67 210.68 208.34 210 208 C209.46484375 206.05078125 209.46484375 206.05078125 208.9375 203.3125 C203.39139659 180.02438419 190.94499778 157.30242969 177 138 C176.61021973 137.45472656 176.22043945 136.90945313 175.81884766 136.34765625 C168.97708279 126.8573745 161.11587824 118.40517039 153 110 C152.17363037 109.1327832 152.17363037 109.1327832 151.33056641 108.24804688 C134.80881506 90.93623283 115.20044528 77.03995377 94 66 C93.28537598 65.62633301 92.57075195 65.25266602 91.83447266 64.86767578 C75.09241071 56.23717781 57.44204322 50.19763403 39.0625 46.125 C38.20108398 45.93389648 37.33966797 45.74279297 36.45214844 45.54589844 C21.61244003 42.48002692 6.8608604 41.62016434 -8.25 41.6875 C-9.10406433 41.68932281 -9.95812866 41.69114563 -10.83807373 41.69302368 C-23.77674488 41.73942214 -36.31019987 42.28510851 -49 45 C-50.2681958 45.25740967 -50.2681958 45.25740967 -51.56201172 45.52001953 C-91.24289147 53.69283463 -131.80393778 72.90372945 -160.2734375 102.3515625 C-162 104 -162 104 -164 104 C-164.495 105.485 -164.495 105.485 -165 107 C-167.12087488 109.24563223 -169.33623114 111.36916231 -171.57470703 113.49658203 C-176.09639928 117.89234378 -179.96710761 122.58707743 -183.75 127.625 C-184.31332031 128.36234375 -184.87664062 129.0996875 -185.45703125 129.859375 C-188.19995009 133.47769347 -190.66537335 137.10485975 -193 141 C-193.95222711 142.26830541 -194.91422443 143.52930107 -195.8828125 144.78515625 C-198.93985634 148.81438152 -201.45850678 153.00061966 -203.875 157.4375 C-204.30353271 158.22261963 -204.73206543 159.00773926 -205.17358398 159.81665039 C-206.46333034 162.20381881 -207.73560742 164.59931844 -209 167 C-209.53826416 168.01513672 -209.53826416 168.01513672 -210.08740234 169.05078125 C-219.76644184 187.58254416 -226.54282682 208.38692981 -230 229 C-230.14663086 229.84401367 -230.29326172 230.68802734 -230.44433594 231.55761719 C-234.68968039 256.94751596 -234.71067131 283.68014173 -230 309 C-229.75056641 310.35279053 -229.75056641 310.35279053 -229.49609375 311.73291016 C-221.33754291 354.36133828 -200.36573725 397.56152446 -168.36328125 427.51171875 C-167 429 -167 429 -167 431 C-166.39929688 431.26941406 -165.79859375 431.53882813 -165.1796875 431.81640625 C-162.98521126 433.00803044 -161.78667921 434.10067082 -160.125 435.9375 C-147.92949135 448.41662513 -131.6074327 460.09620917 -115.65234375 467.1328125 C-114 468 -114 468 -113 470 C-111.01017187 470.69643985 -109.00705243 471.354876 -107 472 C-103.28700269 473.56369518 -99.60386644 475.19806678 -96 477 C-89.39733857 480.23925441 -83.23440245 482.68204945 -76 484 C-74.66438406 484.32406626 -73.33030412 484.65477567 -72 485 C-72.33 485.66 -72.66 486.32 -73 487 C-71.8553125 487.12246094 -70.710625 487.24492188 -69.53125 487.37109375 C-64.35570799 488.01689752 -59.39204538 489.3012968 -54.35546875 490.62695312 C-49.43789939 491.85409795 -45.07002105 492.17699398 -40 492 C-40 492.33 -40 492.66 -40 493 C-18.61821352 495.79435249 2.51300466 495.19213668 24 494 C24.33 493.34 24.66 492.68 25 492 C26.36705078 492.08121094 26.36705078 492.08121094 27.76171875 492.1640625 C33.27079288 492.15577194 38.49423184 490.69076879 43.8125 489.375 C45.47647827 488.96677002 45.47647827 488.96677002 47.17407227 488.55029297 C70.3336634 482.74659677 91.06080729 473.35637502 112 462 C111.67 461.34 111.34 460.68 111 460 C112.21623047 459.93425781 112.21623047 459.93425781 113.45703125 459.8671875 C118.34942032 458.66971189 121.67278103 456.08321398 125.6875 453.125 C126.44611328 452.58230469 127.20472656 452.03960938 127.98632812 451.48046875 C131.2211697 449.14498737 134.20898204 446.85675929 137 444 C138.17317951 443.1058909 139.36203072 442.23212003 140.5625 441.375 C161.65625326 425.7385297 177.71469159 404.40826697 191 382 C191.83917969 380.69675781 191.83917969 380.69675781 192.6953125 379.3671875 C196.99002619 372.51562102 200.13235853 365.32395642 203.25 357.875 C203.67458496 356.86139404 204.09916992 355.84778809 204.53662109 354.8034668 C207.09814291 348.55333322 209.03665122 342.54449595 211 336 C196.15 336 181.3 336 166 336 C165.67 337.65 165.34 339.3 165 341 C158.66916035 357.52424516 150.16268397 372.30924406 139 386 C138.30519531 386.89847656 137.61039063 387.79695313 136.89453125 388.72265625 C125.76581324 402.89976606 112.66061121 414.60390293 98 425 C97.41428223 425.41975098 96.82856445 425.83950195 96.22509766 426.27197266 C85.8871038 433.58906542 74.5590012 438.90443717 63 444 C62.29617188 444.31098633 61.59234375 444.62197266 60.8671875 444.94238281 C41.9278833 453.11986127 21.45477927 455.92008929 1 457 C-0.10085938 457.06058594 -1.20171875 457.12117188 -2.3359375 457.18359375 C-5.24665879 457.25448524 -8.09236374 457.16504699 -11 457 C-12.11665039 456.9383667 -12.11665039 456.9383667 -13.25585938 456.87548828 C-56.09750353 454.29873297 -94.48254148 438.84861297 -127 411 C-127.93714844 410.2059375 -128.87429688 409.411875 -129.83984375 408.59375 C-139.76185158 399.94138298 -148.13912614 390.12751242 -156.00390625 379.6171875 C-157.89796831 377.01307978 -157.89796831 377.01307978 -160 375 C-160.80230345 373.64312189 -161.56906528 372.26500498 -162.3125 370.875 C-164.41043871 367.01004743 -166.66894006 363.30422975 -169.08203125 359.62890625 C-170 358 -170 358 -170 356 C-170.99 355.67 -171.98 355.34 -173 355 C-173.33 354.34 -173.66 353.68 -174 353 C-174.66 352.34 -175.32 351.68 -176 351 C-175.34 350.67 -174.68 350.34 -174 350 C-174.50789063 348.81148437 -175.01578125 347.62296875 -175.5390625 346.3984375 C-185.29578615 323.0998287 -191.06918794 299.2729577 -192 274 C-192.05285156 272.96875 -192.10570312 271.9375 -192.16015625 270.875 C-193.49263428 223.60099693 -174.56822835 176.86212829 -142.36743164 142.57836914 C-141.36385793 141.52117788 -140.35816503 140.46599321 -139.35009766 139.41308594 C-138.20569025 138.21528664 -137.07580936 137.00363447 -135.94921875 135.7890625 C-110.58453554 109.17515506 -74.96315206 92.90113692 -39.39453125 85.7265625 C-36.15306444 85.18074318 -36.15306444 85.18074318 -34 84 C-32.62015814 83.89575671 -31.23552402 83.85137391 -29.85180664 83.83886719 C-28.99232925 83.82925964 -28.13285187 83.8196521 -27.24732971 83.80975342 C-26.31106247 83.80550354 -25.37479523 83.80125366 -24.41015625 83.796875 C-23.43702988 83.79117493 -22.4639035 83.78547485 -21.46128845 83.77960205 C-19.3873707 83.77013187 -17.31343776 83.7636101 -15.23950195 83.75976562 C-12.13398772 83.75021974 -9.02918224 83.71928611 -5.92382812 83.6875 C10.32247047 83.59987805 25.95286595 85.0245514 41.5625 89.75 C42.8460437 90.12535889 42.8460437 90.12535889 44.15551758 90.50830078 C51.80729922 92.8085599 59.21433064 95.65662235 66.60546875 98.6796875 C69.70361796 100.12083267 69.70361796 100.12083267 72 100 C72.433125 100.43828125 72.86625 100.8765625 73.3125 101.328125 C75.35761087 103.35429965 77.44426419 104.42755531 80 105.75 C93.7995759 113.1387493 105.89616394 122.43377195 117.8125 132.5 C118.42971924 133.01651123 119.04693848 133.53302246 119.68286133 134.06518555 C121.16166407 135.33179665 122.58661583 136.66078142 124 138 C124 138.66 124 139.32 124 140 C124.66 140 125.32 140 126 140 C126 140.66 126 141.32 126 142 C126.66 142 127.32 142 128 142 C130.76470909 144.97325395 133.21978331 148.20148644 135.72802734 151.39257812 C136.93337588 152.91580552 138.16329988 154.41949153 139.39453125 155.921875 C166 189.10349354 166 189.10349354 166 204 C166.66 204.33 167.32 204.66 168 205 C168.83789062 207.14208984 168.83789062 207.14208984 169.65625 209.9609375 C170.10677734 211.50587891 170.10677734 211.50587891 170.56640625 213.08203125 C170.87449219 214.16871094 171.18257812 215.25539063 171.5 216.375 C171.80808594 217.42300781 172.11617187 218.47101563 172.43359375 219.55078125 C174.3815238 226.31419504 175.88645625 233.0507262 177 240 C176.2783667 239.98984863 175.5567334 239.97969727 174.81323242 239.96923828 C168.6264396 239.8926326 162.58632469 240.23082926 156.43359375 240.87890625 C154 241 154 241 152 240 C150.59805521 240.104653 149.20058508 240.27187038 147.80859375 240.46875 C140.87190738 241.24711581 134.01975034 240.82781029 127.0625 240.5 C124.47027966 240.38037864 121.87783205 240.26555561 119.28515625 240.15625 C118.14957275 240.10275391 117.01398926 240.04925781 115.84399414 239.99414062 C112.92263075 239.85119388 112.92263075 239.85119388 110 241 C108.0625 241.1328125 108.0625 241.1328125 106 241.125 C105.319375 241.12757813 104.63875 241.13015625 103.9375 241.1328125 C102 241 102 241 99 240 C97.39146241 240.11719764 95.78707909 240.29390489 94.1875 240.5 C87.22169445 241.16622111 80.40233887 240.82518522 73.43505859 240.37768555 C68.95384139 240.10536953 64.65773531 239.94639771 60.1875 240.421875 C49.88671281 241.42919328 49.88671281 241.42919328 46.34082031 238.74316406 C43.11715819 235.39777775 40.63745401 231.57948123 38.140625 227.67919922 C30.56286011 216.52340578 14.67410235 209.7884526 2 207 C-15.97488697 205.89357406 -31.42994235 209.25400165 -45.3125 221.4375 C-46.88990614 222.94286712 -48.45409386 224.46230221 -50 226 C-50.55300781 226.51820313 -51.10601562 227.03640625 -51.67578125 227.5703125 C-62.07625976 238.279161 -66.86695682 254.58622242 -67.3125 269.125 C-66.57693665 287.66732607 -60.31162042 304.94848275 -46.62890625 317.8671875 C-32.63893169 329.217152 -15.86365356 333.84059724 2 332 C15.80672029 330.13667505 31.45503182 323.85790769 40.15478516 312.49121094 C40.57421387 311.9243457 40.99364258 311.35748047 41.42578125 310.7734375 C41.86116211 310.18651123 42.29654297 309.59958496 42.74511719 308.99487305 C43.60725656 307.81206768 44.45130393 306.61580784 45.27441406 305.40551758 C47.18816826 302.73023894 48.36886132 301.16036213 51.61547852 300.33544922 C55.65575422 299.9350064 59.62271891 299.87544217 63.6796875 299.90234375 C64.49245148 299.9037587 65.30521545 299.90517365 66.14260864 299.90663147 C68.72011101 299.91219665 71.2975242 299.9247426 73.875 299.9375 C75.63020707 299.9425195 77.38541552 299.94708162 79.140625 299.95117188 C83.42711732 299.96215466 87.71354357 299.97939508 92 300 C88.88622486 320.28998901 73.81952697 339.6082341 57.8671875 351.9453125 C33.30628188 369.54617947 5.14398408 376.06679563 -24.69042969 371.4140625 C-51.3031544 366.64290171 -75.31267547 351.00242997 -91 329 C-98.10790821 318.4280209 -102.56311944 307.21757633 -106 295 C-106.25523437 294.11183594 -106.51046875 293.22367188 -106.7734375 292.30859375 C-112.93095366 266.65227641 -106.82216936 239.64486171 -94.30859375 216.9296875 C-84.32998534 200.67682647 -71.29247413 188.61867897 -55 179 C-54.16984375 178.50628906 -53.3396875 178.01257813 -52.484375 177.50390625 C-32.0632892 166.35566043 -4.02377566 164.26976648 18.22509766 170.078125 C24.58619118 171.95669826 30.62622876 174.67558246 36.609375 177.51171875 C39.49037491 178.77630512 41.90611212 179.55717254 45 180 C45 180.66 45 181.32 45 182 C46.91296564 183.50725864 46.91296564 183.50725864 49.375 185.0625 C55.76848295 189.4064409 62.30817274 194.33926572 66.91748047 200.60766602 C71.59081254 204.23462475 75.89238307 203.62449738 81.64453125 203.48828125 C82.7694548 203.48120651 83.89437836 203.47413177 85.0533905 203.46684265 C88.64044149 203.43889144 92.22592212 203.37614717 95.8125 203.3125 C98.24672222 203.28741827 100.68096895 203.26460489 103.11523438 203.24414062 C109.0773572 203.18906226 115.0385664 203.10542705 121 203 C120.07084243 201.37021552 119.13135466 199.74631725 118.1875 198.125 C117.66542969 197.22007812 117.14335938 196.31515625 116.60546875 195.3828125 C115.06266201 192.76726817 115.06266201 192.76726817 112 191 C112 190.34 112 189.68 112 189 C106.69322796 180.51524699 99.92494346 173.17205472 93 166 C92.46141357 165.43659912 91.92282715 164.87319824 91.36791992 164.29272461 C87.32606645 160.14395282 83.08658534 156.51226778 78.4375 153.0625 C77.74857666 152.54888916 77.05965332 152.03527832 76.34985352 151.50610352 C68.7969501 145.97446054 60.85392539 140.95271782 52.16015625 137.41015625 C49 136 49 136 48 134 C46.00550152 133.63518918 44.00390335 133.30900236 42 133 C39.54831014 132.23676396 37.11951663 131.4450599 34.6875 130.625 C-0.69812636 119.19671662 -38.14662352 123.64625939 -71.16845703 140.07910156 C-83.20670235 146.2495701 -94.57349565 153.7592332 -103.73046875 163.8203125 C-105 165 -105 165 -107 165 C-107.268125 165.60070312 -107.53625 166.20140625 -107.8125 166.8203125 C-109.0191 169.03505856 -110.13092179 170.21259871 -112 171.875 C-115.54309374 175.31366572 -118.43184338 179.07076284 -121.3125 183.0625 C-121.74498047 183.65208496 -122.17746094 184.24166992 -122.62304688 184.84912109 C-125.19356853 188.47315181 -126.6186236 191.747291 -128 196 C-128.96448298 197.03429811 -129.96526102 198.03599002 -131 199 C-131.95407634 200.63402371 -132.84735778 202.30457787 -133.6875 204 C-134.12449219 204.86625 -134.56148437 205.7325 -135.01171875 206.625 C-136.19209202 209.03289224 -136.19209202 209.03289224 -136 212 C-136.66 212 -137.32 212 -138 212 C-139.03240418 215.32402863 -140.01630438 218.66127038 -141 222 C-141.32484375 223.04285156 -141.6496875 224.08570313 -141.984375 225.16015625 C-144.32280563 233.13780227 -145.70450402 241.0116439 -146.75 249.25 C-146.87761719 250.24338379 -147.00523437 251.23676758 -147.13671875 252.26025391 C-151.29363384 287.44807308 -141.86666303 327.62726269 -120 355.9375 C-118.36569516 357.98940819 -116.69217524 359.99406169 -115 362 C-113.88818359 363.32257813 -113.88818359 363.32257813 -112.75390625 364.671875 C-94.55911681 385.55858516 -71.44819173 399.37224591 -45 407 C-43.96875 407.31582031 -42.9375 407.63164063 -41.875 407.95703125 C-5.29383793 418.27088667 34.45574871 410.68016328 67.1875 392.6875 C83.40786566 383.47879713 97.77139015 370.86973188 109 356 C109.59167969 355.22398437 110.18335938 354.44796875 110.79296875 353.6484375 C121.90889642 338.43716805 130.083865 321.20190315 134.4921875 302.87109375 C135 301 135 301 136 300 C137.58154848 299.90405775 139.16739125 299.8781204 140.75184631 299.87974548 C141.77974777 299.87837082 142.80764923 299.87699615 143.86669922 299.87557983 C145.57249146 299.88097275 145.57249146 299.88097275 147.31274414 299.88647461 C148.50282578 299.88632858 149.69290741 299.88618256 150.91905212 299.8860321 C154.19163274 299.88661106 157.46417107 299.89164019 160.73674321 299.89860606 C164.15338665 299.90484033 167.57003083 299.90544346 170.98667908 299.90663147 C177.46069267 299.90974457 183.93468946 299.91795767 190.40869564 299.92798096 C197.7773792 299.93914275 205.14606355 299.94465271 212.51475346 299.94967639 C227.67651169 299.96014031 242.83825417 299.97773934 258 300 C266.4180407 330.02392005 239.4797098 379.12355049 225.52783203 404.29980469 C216.08147574 420.99470731 204.93826197 435.751537 191.95703125 449.85546875 C190.18300071 451.79946629 188.49813591 453.79224654 186.8125 455.8125 C172.73422109 471.85593912 154.97841521 484.68504258 137 496 C136.36191406 496.40283203 135.72382812 496.80566406 135.06640625 497.22070312 C113.19652984 510.88396255 80.67450321 530 54 530 C53.67 530.66 53.34 531.32 53 532 C50.86767473 532.28740955 48.73226871 532.56067539 46.58935547 532.75390625 C44.07251905 532.99310775 41.59577159 533.33235624 39.09765625 533.71875 C38.26943359 533.84636719 37.44121094 533.97398437 36.58789062 534.10546875 C34.90810995 534.36789388 33.22842182 534.63091204 31.54882812 534.89453125 C29.03479657 535.28130533 26.51909785 535.64777742 24 536 C23.27723877 536.10223877 22.55447754 536.20447754 21.80981445 536.30981445 C13.78052064 537.27903201 5.70191562 537.1860732 -2.37329102 537.18530273 C-4.90073027 537.18746849 -7.42771689 537.20561779 -9.95507812 537.22460938 C-25.62716814 537.28017604 -41.01578409 535.95482453 -56.375 532.75 C-57.41881836 532.53674072 -58.46263672 532.32348145 -59.53808594 532.10375977 C-69.07443388 530.09568893 -78.41347231 527.53476593 -87.73046875 524.68896484 C-89.86732342 524.04027682 -92.00959268 523.41612161 -94.15625 522.80078125 C-95.3421875 522.45402344 -96.528125 522.10726562 -97.75 521.75 C-98.75546875 521.45609375 -99.7609375 521.1621875 -100.796875 520.859375 C-103 520 -103 520 -104 518 C-105.65449105 517.61070799 -107.32546201 517.291224 -109 517 C-117.23255814 514.76744186 -117.23255814 514.76744186 -120 512 C-122.40331414 510.75144899 -124.81199778 509.55172197 -127.25 508.375 C-145.22379819 499.51112623 -161.74372704 489.03049943 -177 476 C-178.0851342 475.09929176 -179.17111543 474.19960329 -180.2578125 473.30078125 C-193.03007228 462.65332002 -204.78004471 451.13416037 -215 438 C-215.66128906 437.19433594 -216.32257813 436.38867188 -217.00390625 435.55859375 C-237.23781799 410.88985204 -250.98924366 382.70596882 -262.203125 353.03686523 C-262.97275607 350.97898515 -262.97275607 350.97898515 -264 349 C-264.32759578 347.70309449 -264.62384638 346.39817174 -264.90234375 345.08984375 C-265.07620605 344.28530762 -265.25006836 343.48077148 -265.42919922 342.65185547 C-265.61756348 341.77674316 -265.80592773 340.90163086 -266 340 C-266.84662732 336.18579913 -267.70443502 332.37414175 -268.5625 328.5625 C-268.78357422 327.57056641 -269.00464844 326.57863281 -269.23242188 325.55664062 C-269.44576172 324.61111328 -269.65910156 323.66558594 -269.87890625 322.69140625 C-270.0704126 321.83748291 -270.26191895 320.98355957 -270.45922852 320.10375977 C-270.93087812 317.96286103 -270.93087812 317.96286103 -272 316 C-272.20800149 314.26903876 -272.36322624 312.53160627 -272.4921875 310.79296875 C-272.57436523 309.71063965 -272.65654297 308.62831055 -272.74121094 307.51318359 C-272.82661133 306.35383301 -272.91201172 305.19448242 -273 304 C-273.09313477 302.84967285 -273.18626953 301.6993457 -273.28222656 300.51416016 C-277.31543383 250.27680387 -271.34862222 200.71442461 -249 155 C-248.60474121 154.18499023 -248.20948242 153.36998047 -247.80224609 152.53027344 C-231.63366359 119.5410989 -207.44235649 85.55345937 -178 63 C-177.34 63 -176.68 63 -176 63 C-175.67 62.01 -175.34 61.02 -175 60 C-173.35546875 58.7109375 -173.35546875 58.7109375 -171.1875 57.375 C-167.49134802 55.01710994 -164.02176089 52.50571287 -160.5625 49.8125 C-123.72637165 22.0222057 -77.79991292 5.29999182 -32 1 C-30.86046875 0.88914063 -29.7209375 0.77828125 -28.546875 0.6640625 C-19.03138853 -0.13975713 -9.54019041 -0.19618856 0 0 Z " fill="#010101" transform="translate(520,220)"/>
<path d="M0 0 C1.485 0.99 1.485 0.99 3 2 C1.68 1.67 0.36 1.34 -1 1 C-0.67 0.67 -0.34 0.34 0 0 Z " fill="#171816" transform="translate(529,712)"/>
<path d="M0 0 C4 1 4 1 4 1 Z " fill="#191918" transform="translate(539,712)"/>
<path d="M0 0 C0.99 0.33 1.98 0.66 3 1 C2.01 1 1.02 1 0 1 C0 0.67 0 0.34 0 0 Z " fill="#141615" transform="translate(435,608)"/>
<path d="M0 0 C0.33 0.99 0.66 1.98 1 3 C0.34 2.67 -0.32 2.34 -1 2 C-0.67 1.34 -0.34 0.68 0 0 Z " fill="#161714" transform="translate(338,553)"/>
<path d="M0 0 C1 4 1 4 1 4 Z " fill="#171616" transform="translate(410,498)"/>
<path d="M0 0 C1 4 1 4 1 4 Z " fill="#181919" transform="translate(287,481)"/>
<path d="M0 0 C4 1 4 1 4 1 Z " fill="#181817" transform="translate(522,262)"/>
<path d="M0 0 C3 1 3 1 3 1 Z " fill="#1B1B19" transform="translate(499,758)"/>
<path d="" fill="#1E1F1D" transform="translate(0,0)"/>
<path d="M0 0 C3 1 3 1 3 1 Z " fill="#181718" transform="translate(599,696)"/>
<path d="M0 0 C3 1 3 1 3 1 Z " fill="#1A1819" transform="translate(563,671)"/>
<path d="M0 0 C0.66 0.66 1.32 1.32 2 2 C1.34 2 0.68 2 0 2 C0 1.34 0 0.68 0 0 Z " fill="#212121" transform="translate(256,576)"/>
<path d="" fill="#181616" transform="translate(0,0)"/>
<path d="M0 0 C0.33 0.66 0.66 1.32 1 2 C0.34 1.67 -0.32 1.34 -1 1 C-0.67 0.67 -0.34 0.34 0 0 Z " fill="#171718" transform="translate(417,529)"/>
<path d="" fill="#181619" transform="translate(0,0)"/>
<path d="M0 0 C0.33 0.66 0.66 1.32 1 2 C0.34 1.67 -0.32 1.34 -1 1 C-0.67 0.67 -0.34 0.34 0 0 Z " fill="#191818" transform="translate(413,464)"/>
<path d="M0 0 C3 1 3 1 3 1 Z " fill="#171716" transform="translate(699,366)"/>
<path d="M0 0 C3 1 3 1 3 1 Z " fill="#141515" transform="translate(572,312)"/>
<path d="M0 0 C3 1 3 1 3 1 Z " fill="#171816" transform="translate(480,304)"/>
<path d="M0 0 C3 1 3 1 3 1 Z " fill="#181816" transform="translate(515,262)"/>
<path d="M0 0 C3 1 3 1 3 1 Z " fill="#212120" transform="translate(400,243)"/>
<path d="M0 0 C2 1 2 1 2 1 Z " fill="#1D1C1D" transform="translate(579,750)"/>
<path d="" fill="#1E1E1F" transform="translate(0,0)"/>
<path d="M0 0 C2 1 2 1 2 1 Z " fill="#171717" transform="translate(483,712)"/>
<path d="M0 0 C2 1 2 1 2 1 Z " fill="#1A1918" transform="translate(608,692)"/>
<path d="M0 0 C2 1 2 1 2 1 Z " fill="#181817" transform="translate(624,682)"/>
<path d="M0 0 C2 1 2 1 2 1 Z " fill="#171615" transform="translate(515,678)"/>
<path d="M0 0 C2 1 2 1 2 1 Z " fill="#181817" transform="translate(482,675)"/>
<path d="M0 0 C2 1 2 1 2 1 Z " fill="#171816" transform="translate(433,659)"/>
<path d="M0 0 C2 1 2 1 2 1 Z " fill="#171817" transform="translate(425,655)"/>
<path d="" fill="#1F2020" transform="translate(0,0)"/>
<path d="M0 0 C2 1 2 1 2 1 Z " fill="#181917" transform="translate(572,618)"/>
<path d="M0 0 C2 1 2 1 2 1 Z " fill="#181819" transform="translate(577,616)"/>
<path d="M0 0 C2 1 2 1 2 1 Z " fill="#181818" transform="translate(584,612)"/>
<path d="" fill="#1F1F1F" transform="translate(0,0)"/>
<path d="" fill="#161715" transform="translate(0,0)"/>
<path d="M0 0 C2 1 2 1 2 1 Z " fill="#1A1A1B" transform="translate(489,591)"/>
<path d="" fill="#171516" transform="translate(0,0)"/>
<path d="M0 0 C2 1 2 1 2 1 Z " fill="#151516" transform="translate(728,559)"/>
<path d="M0 0 C2 1 2 1 2 1 Z " fill="#1A1919" transform="translate(493,548)"/>
<path d="" fill="#161515" transform="translate(0,0)"/>
<path d="" fill="#181717" transform="translate(0,0)"/>
<path d="" fill="#181919" transform="translate(0,0)"/>
<path d="" fill="#181A1B" transform="translate(0,0)"/>
<path d="" fill="#171616" transform="translate(0,0)"/>
<path d="" fill="#202020" transform="translate(0,0)"/>
<path d="" fill="#191819" transform="translate(0,0)"/>
<path d="" fill="#191717" transform="translate(0,0)"/>
<path d="M0 0 C2 1 2 1 2 1 Z " fill="#191918" transform="translate(547,439)"/>
<path d="M0 0 C2 1 2 1 2 1 Z " fill="#1A1917" transform="translate(497,429)"/>
<path d="" fill="#181818" transform="translate(0,0)"/>
<path d="M0 0 C2 1 2 1 2 1 Z " fill="#171716" transform="translate(456,402)"/>
<path d="" fill="#202020" transform="translate(0,0)"/>
<path d="" fill="#161714" transform="translate(0,0)"/>
<path d="" fill="#212221" transform="translate(0,0)"/>
<path d="" fill="#171716" transform="translate(0,0)"/>
<path d="M0 0 C2 1 2 1 2 1 Z " fill="#161516" transform="translate(570,357)"/>
<path d="M0 0 C2 1 2 1 2 1 Z " fill="#181616" transform="translate(553,351)"/>
<path d="M0 0 C2 1 2 1 2 1 Z " fill="#171817" transform="translate(475,350)"/>
<path d="M0 0 C2 1 2 1 2 1 Z " fill="#222121" transform="translate(288,340)"/>
<path d="" fill="#212120" transform="translate(0,0)"/>
<path d="M0 0 C2 1 2 1 2 1 Z " fill="#171816" transform="translate(417,328)"/>
<path d="M0 0 C2 1 2 1 2 1 Z " fill="#191918" transform="translate(432,320)"/>
<path d="M0 0 C2 1 2 1 2 1 Z " fill="#151412" transform="translate(577,314)"/>
<path d="M0 0 C2 1 2 1 2 1 Z " fill="#181718" transform="translate(548,305)"/>
<path d="" fill="#171817" transform="translate(0,0)"/>
<path d="M0 0 C2 1 2 1 2 1 Z " fill="#151614" transform="translate(542,304)"/>
<path d="M0 0 C2 1 2 1 2 1 Z " fill="#21221F" transform="translate(329,291)"/>
<path d="M0 0 C2 1 2 1 2 1 Z " fill="#191818" transform="translate(500,262)"/>
<path d="M0 0 C2 1 2 1 2 1 Z " fill="#1D1D1D" transform="translate(646,256)"/>
<path d="M0 0 C2 1 2 1 2 1 Z " fill="#1F1C1F" transform="translate(377,256)"/>
<path d="M0 0 C2 1 2 1 2 1 Z " fill="#222321" transform="translate(385,251)"/>
<path d="M0 0 C2 1 2 1 2 1 Z " fill="#212020" transform="translate(408,240)"/>
<path d="M0 0 C2 1 2 1 2 1 Z " fill="#201F20" transform="translate(456,224)"/>
<path d="" fill="#1B1A1B" transform="translate(0,0)"/>
<path d="" fill="#1E1D1C" transform="translate(0,0)"/>
<path d="" fill="#1C1D1B" transform="translate(0,0)"/>
<path d="" fill="#1D1D1E" transform="translate(0,0)"/>
<path d="" fill="#1D1D1D" transform="translate(0,0)"/>
<path d="" fill="#1E1E1C" transform="translate(0,0)"/>
<path d="" fill="#1E1E1D" transform="translate(0,0)"/>
<path d="" fill="#1F1D1D" transform="translate(0,0)"/>
<path d="" fill="#1D1F1E" transform="translate(0,0)"/>
<path d="" fill="#1B1E1D" transform="translate(0,0)"/>
<path d="" fill="#201F1D" transform="translate(0,0)"/>
<path d="" fill="#1D2021" transform="translate(0,0)"/>
<path d="" fill="#1F1D1D" transform="translate(0,0)"/>
<path d="" fill="#212121" transform="translate(0,0)"/>
<path d="" fill="#20201F" transform="translate(0,0)"/>
<path d="" fill="#202120" transform="translate(0,0)"/>
<path d="" fill="#1F221F" transform="translate(0,0)"/>
<path d="" fill="#1F1E1F" transform="translate(0,0)"/>
<path d="" fill="#181A16" transform="translate(0,0)"/>
<path d="" fill="#171917" transform="translate(0,0)"/>
<path d="" fill="#171616" transform="translate(0,0)"/>
<path d="" fill="#191815" transform="translate(0,0)"/>
<path d="" fill="#191514" transform="translate(0,0)"/>
<path d="" fill="#181617" transform="translate(0,0)"/>
<path d="" fill="#161516" transform="translate(0,0)"/>
<path d="" fill="#171716" transform="translate(0,0)"/>
<path d="" fill="#151614" transform="translate(0,0)"/>
<path d="" fill="#201F1E" transform="translate(0,0)"/>
<path d="" fill="#19181A" transform="translate(0,0)"/>
<path d="" fill="#171616" transform="translate(0,0)"/>
<path d="" fill="#1E1F1D" transform="translate(0,0)"/>
<path d="" fill="#201F1F" transform="translate(0,0)"/>
<path d="" fill="#1F1D1D" transform="translate(0,0)"/>
<path d="" fill="#1E1E1D" transform="translate(0,0)"/>
<path d="" fill="#141515" transform="translate(0,0)"/>
<path d="" fill="#1A1615" transform="translate(0,0)"/>
<path d="" fill="#1E1F1D" transform="translate(0,0)"/>
<path d="" fill="#181817" transform="translate(0,0)"/>
<path d="" fill="#1A1717" transform="translate(0,0)"/>
<path d="" fill="#181816" transform="translate(0,0)"/>
<path d="" fill="#191A19" transform="translate(0,0)"/>
<path d="" fill="#191819" transform="translate(0,0)"/>
<path d="" fill="#181919" transform="translate(0,0)"/>
<path d="" fill="#181717" transform="translate(0,0)"/>
<path d="" fill="#191717" transform="translate(0,0)"/>
<path d="" fill="#151616" transform="translate(0,0)"/>
<path d="" fill="#171617" transform="translate(0,0)"/>
<path d="" fill="#191919" transform="translate(0,0)"/>
<path d="" fill="#181616" transform="translate(0,0)"/>
<path d="" fill="#181A18" transform="translate(0,0)"/>
<path d="" fill="#191817" transform="translate(0,0)"/>
<path d="" fill="#1C1D1D" transform="translate(0,0)"/>
<path d="" fill="#1F1E20" transform="translate(0,0)"/>
<path d="" fill="#171716" transform="translate(0,0)"/>
<path d="" fill="#171515" transform="translate(0,0)"/>
<path d="" fill="#161716" transform="translate(0,0)"/>
<path d="" fill="#191A18" transform="translate(0,0)"/>
<path d="" fill="#1A1816" transform="translate(0,0)"/>
<path d="" fill="#1F1E1E" transform="translate(0,0)"/>
<path d="" fill="#191719" transform="translate(0,0)"/>
<path d="" fill="#222424" transform="translate(0,0)"/>
<path d="" fill="#1A1918" transform="translate(0,0)"/>
<path d="" fill="#202020" transform="translate(0,0)"/>
<path d="" fill="#171615" transform="translate(0,0)"/>
<path d="" fill="#171717" transform="translate(0,0)"/>
<path d="" fill="#191A19" transform="translate(0,0)"/>
<path d="" fill="#191818" transform="translate(0,0)"/>
<path d="" fill="#181515" transform="translate(0,0)"/>
<path d="" fill="#171716" transform="translate(0,0)"/>
<path d="" fill="#1E211F" transform="translate(0,0)"/>
<path d="" fill="#202122" transform="translate(0,0)"/>
<path d="" fill="#1A1A18" transform="translate(0,0)"/>
<path d="" fill="#202021" transform="translate(0,0)"/>
<path d="" fill="#171916" transform="translate(0,0)"/>
<path d="" fill="#171717" transform="translate(0,0)"/>
<path d="" fill="#171817" transform="translate(0,0)"/>
<path d="" fill="#171816" transform="translate(0,0)"/>
<path d="" fill="#171719" transform="translate(0,0)"/>
<path d="" fill="#181617" transform="translate(0,0)"/>
<path d="" fill="#181B18" transform="translate(0,0)"/>
<path d="" fill="#181817" transform="translate(0,0)"/>
<path d="" fill="#161715" transform="translate(0,0)"/>
<path d="" fill="#161617" transform="translate(0,0)"/>
<path d="" fill="#181A19" transform="translate(0,0)"/>
<path d="" fill="#181A18" transform="translate(0,0)"/>
<path d="" fill="#181615" transform="translate(0,0)"/>
<path d="" fill="#232122" transform="translate(0,0)"/>
<path d="" fill="#171414" transform="translate(0,0)"/>
<path d="" fill="#191919" transform="translate(0,0)"/>
<path d="" fill="#1A1A1A" transform="translate(0,0)"/>
<path d="" fill="#1A1717" transform="translate(0,0)"/>
<path d="" fill="#1E1E20" transform="translate(0,0)"/>
<path d="" fill="#23201F" transform="translate(0,0)"/>
<path d="" fill="#202122" transform="translate(0,0)"/>
<path d="" fill="#232223" transform="translate(0,0)"/>
<path d="" fill="#171716" transform="translate(0,0)"/>
<path d="" fill="#151817" transform="translate(0,0)"/>
<path d="" fill="#151515" transform="translate(0,0)"/>
<path d="" fill="#221D1E" transform="translate(0,0)"/>
<path d="" fill="#1A1A1D" transform="translate(0,0)"/>
<path d="" fill="#161715" transform="translate(0,0)"/>
<path d="" fill="#20201F" transform="translate(0,0)"/>
<path d="" fill="#222121" transform="translate(0,0)"/>
<path d="" fill="#1B191A" transform="translate(0,0)"/>
<path d="" fill="#1B1816" transform="translate(0,0)"/>
<path d="" fill="#222220" transform="translate(0,0)"/>
<path d="" fill="#191717" transform="translate(0,0)"/>
<path d="" fill="#18181A" transform="translate(0,0)"/>
<path d="" fill="#20201F" transform="translate(0,0)"/>
<path d="" fill="#1D1E1D" transform="translate(0,0)"/>
<path d="" fill="#191719" transform="translate(0,0)"/>
<path d="" fill="#181717" transform="translate(0,0)"/>
<path d="" fill="#1A1A19" transform="translate(0,0)"/>
<path d="" fill="#181718" transform="translate(0,0)"/>
<path d="" fill="#161513" transform="translate(0,0)"/>
<path d="" fill="#161715" transform="translate(0,0)"/>
<path d="" fill="#171718" transform="translate(0,0)"/>
<path d="" fill="#171917" transform="translate(0,0)"/>
<path d="" fill="#181919" transform="translate(0,0)"/>
<path d="" fill="#212020" transform="translate(0,0)"/>
<path d="" fill="#201F1F" transform="translate(0,0)"/>
<path d="" fill="#171716" transform="translate(0,0)"/>
<path d="" fill="#212222" transform="translate(0,0)"/>
<path d="" fill="#171816" transform="translate(0,0)"/>
<path d="" fill="#171616" transform="translate(0,0)"/>
<path d="" fill="#212122" transform="translate(0,0)"/>
<path d="" fill="#171717" transform="translate(0,0)"/>
<path d="" fill="#191818" transform="translate(0,0)"/>
<path d="" fill="#181716" transform="translate(0,0)"/>
<path d="" fill="#181816" transform="translate(0,0)"/>
<path d="" fill="#161616" transform="translate(0,0)"/>
<path d="" fill="#161617" transform="translate(0,0)"/>
<path d="" fill="#282827" transform="translate(0,0)"/>
<path d="" fill="#191818" transform="translate(0,0)"/>
<path d="" fill="#171615" transform="translate(0,0)"/>
<path d="" fill="#171817" transform="translate(0,0)"/>
<path d="" fill="#151619" transform="translate(0,0)"/>
<path d="" fill="#171715" transform="translate(0,0)"/>
<path d="" fill="#181716" transform="translate(0,0)"/>
<path d="" fill="#191A19" transform="translate(0,0)"/>
<path d="" fill="#191817" transform="translate(0,0)"/>
<path d="" fill="#161716" transform="translate(0,0)"/>
<path d="" fill="#181819" transform="translate(0,0)"/>
<path d="" fill="#171616" transform="translate(0,0)"/>
<path d="" fill="#151617" transform="translate(0,0)"/>
<path d="" fill="#181816" transform="translate(0,0)"/>
<path d="" fill="#191818" transform="translate(0,0)"/>
<path d="" fill="#1E1F1F" transform="translate(0,0)"/>
<path d="" fill="#1A1717" transform="translate(0,0)"/>
<path d="" fill="#171618" transform="translate(0,0)"/>
<path d="" fill="#171515" transform="translate(0,0)"/>
<path d="" fill="#1C191D" transform="translate(0,0)"/>
<path d="" fill="#171616" transform="translate(0,0)"/>
<path d="" fill="#191A1B" transform="translate(0,0)"/>
<path d="" fill="#181819" transform="translate(0,0)"/>
<path d="" fill="#181516" transform="translate(0,0)"/>
<path d="" fill="#181717" transform="translate(0,0)"/>
<path d="" fill="#21211F" transform="translate(0,0)"/>
<path d="" fill="#1A1C1B" transform="translate(0,0)"/>
<path d="" fill="#161514" transform="translate(0,0)"/>
<path d="" fill="#181918" transform="translate(0,0)"/>
<path d="" fill="#181718" transform="translate(0,0)"/>
<path d="" fill="#1A1A19" transform="translate(0,0)"/>
<path d="" fill="#1A1A19" transform="translate(0,0)"/>
<path d="" fill="#181817" transform="translate(0,0)"/>
<path d="" fill="#1B1818" transform="translate(0,0)"/>
<path d="" fill="#1B191A" transform="translate(0,0)"/>
<path d="" fill="#181918" transform="translate(0,0)"/>
<path d="" fill="#1F201F" transform="translate(0,0)"/>
<path d="" fill="#1B181A" transform="translate(0,0)"/>
<path d="" fill="#161816" transform="translate(0,0)"/>
<path d="" fill="#191819" transform="translate(0,0)"/>
<path d="" fill="#212120" transform="translate(0,0)"/>
<path d="" fill="#161716" transform="translate(0,0)"/>
<path d="" fill="#191B1C" transform="translate(0,0)"/>
<path d="" fill="#1F1F1F" transform="translate(0,0)"/>
<path d="" fill="#171818" transform="translate(0,0)"/>
<path d="" fill="#19191B" transform="translate(0,0)"/>
<path d="" fill="#1A1A1A" transform="translate(0,0)"/>
<path d="" fill="#181815" transform="translate(0,0)"/>
<path d="" fill="#191919" transform="translate(0,0)"/>
<path d="" fill="#1B1B19" transform="translate(0,0)"/>
<path d="" fill="#181918" transform="translate(0,0)"/>
<path d="" fill="#1D1D1D" transform="translate(0,0)"/>
<path d="" fill="#202020" transform="translate(0,0)"/>
<path d="" fill="#1E1F1D" transform="translate(0,0)"/>
<path d="" fill="#1A1818" transform="translate(0,0)"/>
<path d="" fill="#191A1A" transform="translate(0,0)"/>
<path d="" fill="#1B1B1A" transform="translate(0,0)"/>
<path d="" fill="#1A1918" transform="translate(0,0)"/>
<path d="" fill="#171717" transform="translate(0,0)"/>
<path d="" fill="#181919" transform="translate(0,0)"/>
<path d="" fill="#111311" transform="translate(0,0)"/>
<path d="" fill="#161818" transform="translate(0,0)"/>
<path d="" fill="#191A18" transform="translate(0,0)"/>
<path d="" fill="#1B1A17" transform="translate(0,0)"/>
<path d="" fill="#171614" transform="translate(0,0)"/>
<path d="" fill="#181717" transform="translate(0,0)"/>
<path d="" fill="#1A1B1A" transform="translate(0,0)"/>
<path d="" fill="#181617" transform="translate(0,0)"/>
<path d="" fill="#171917" transform="translate(0,0)"/>
<path d="" fill="#1A1716" transform="translate(0,0)"/>
<path d="" fill="#151715" transform="translate(0,0)"/>
<path d="" fill="#1E1F20" transform="translate(0,0)"/>
<path d="" fill="#1A1A1B" transform="translate(0,0)"/>
<path d="" fill="#1A1A1A" transform="translate(0,0)"/>
<path d="" fill="#171516" transform="translate(0,0)"/>
<path d="" fill="#171716" transform="translate(0,0)"/>
<path d="" fill="#171916" transform="translate(0,0)"/>
<path d="" fill="#19181A" transform="translate(0,0)"/>
<path d="" fill="#151517" transform="translate(0,0)"/>
<path d="" fill="#171619" transform="translate(0,0)"/>
<path d="" fill="#181A18" transform="translate(0,0)"/>
<path d="" fill="#181818" transform="translate(0,0)"/>
<path d="" fill="#171818" transform="translate(0,0)"/>
<path d="" fill="#222425" transform="translate(0,0)"/>
<path d="" fill="#18191A" transform="translate(0,0)"/>
<path d="" fill="#171618" transform="translate(0,0)"/>
<path d="" fill="#191818" transform="translate(0,0)"/>
<path d="" fill="#151914" transform="translate(0,0)"/>
<path d="" fill="#131512" transform="translate(0,0)"/>
<path d="" fill="#171916" transform="translate(0,0)"/>
<path d="" fill="#151617" transform="translate(0,0)"/>
<path d="" fill="#171515" transform="translate(0,0)"/>
<path d="" fill="#181917" transform="translate(0,0)"/>
<path d="" fill="#202121" transform="translate(0,0)"/>
<path d="" fill="#181616" transform="translate(0,0)"/>
<path d="" fill="#212221" transform="translate(0,0)"/>
<path d="" fill="#232022" transform="translate(0,0)"/>
<path d="" fill="#161717" transform="translate(0,0)"/>
<path d="" fill="#232323" transform="translate(0,0)"/>
<path d="" fill="#151714" transform="translate(0,0)"/>
<path d="" fill="#191918" transform="translate(0,0)"/>
<path d="" fill="#151816" transform="translate(0,0)"/>
<path d="" fill="#181617" transform="translate(0,0)"/>
<path d="" fill="#161415" transform="translate(0,0)"/>
<path d="" fill="#171916" transform="translate(0,0)"/>
<path d="" fill="#181616" transform="translate(0,0)"/>
<path d="" fill="#1A1918" transform="translate(0,0)"/>
<path d="" fill="#191815" transform="translate(0,0)"/>
<path d="" fill="#1A1817" transform="translate(0,0)"/>
<path d="" fill="#171515" transform="translate(0,0)"/>
<path d="" fill="#1A1919" transform="translate(0,0)"/>
<path d="" fill="#1A1A19" transform="translate(0,0)"/>
<path d="" fill="#181616" transform="translate(0,0)"/>
<path d="" fill="#161719" transform="translate(0,0)"/>
<path d="" fill="#232324" transform="translate(0,0)"/>
<path d="" fill="#181716" transform="translate(0,0)"/>
<path d="" fill="#171818" transform="translate(0,0)"/>
<path d="" fill="#20201E" transform="translate(0,0)"/>
<path d="" fill="#242523" transform="translate(0,0)"/>
<path d="" fill="#171514" transform="translate(0,0)"/>
<path d="" fill="#171917" transform="translate(0,0)"/>
<path d="" fill="#1B1918" transform="translate(0,0)"/>
<path d="" fill="#191919" transform="translate(0,0)"/>
<path d="" fill="#1B191A" transform="translate(0,0)"/>
<path d="" fill="#181816" transform="translate(0,0)"/>
<path d="" fill="#171716" transform="translate(0,0)"/>
<path d="" fill="#171817" transform="translate(0,0)"/>
<path d="" fill="#191716" transform="translate(0,0)"/>
<path d="" fill="#171916" transform="translate(0,0)"/>
<path d="" fill="#191817" transform="translate(0,0)"/>
<path d="" fill="#171817" transform="translate(0,0)"/>
<path d="" fill="#1A1A19" transform="translate(0,0)"/>
<path d="" fill="#161716" transform="translate(0,0)"/>
<path d="" fill="#1A1618" transform="translate(0,0)"/>
<path d="" fill="#1D1F1F" transform="translate(0,0)"/>
<path d="" fill="#181817" transform="translate(0,0)"/>
<path d="" fill="#181A17" transform="translate(0,0)"/>
<path d="" fill="#171617" transform="translate(0,0)"/>
<path d="" fill="#1A1718" transform="translate(0,0)"/>
<path d="" fill="#181917" transform="translate(0,0)"/>
<path d="" fill="#181816" transform="translate(0,0)"/>
<path d="" fill="#191917" transform="translate(0,0)"/>
<path d="" fill="#212120" transform="translate(0,0)"/>
<path d="" fill="#181715" transform="translate(0,0)"/>
<path d="" fill="#181617" transform="translate(0,0)"/>
<path d="" fill="#191918" transform="translate(0,0)"/>
<path d="" fill="#171617" transform="translate(0,0)"/>
<path d="" fill="#151817" transform="translate(0,0)"/>
<path d="" fill="#232322" transform="translate(0,0)"/>
<path d="" fill="#151416" transform="translate(0,0)"/>
<path d="" fill="#151516" transform="translate(0,0)"/>
<path d="" fill="#161717" transform="translate(0,0)"/>
<path d="" fill="#191818" transform="translate(0,0)"/>
<path d="" fill="#1A1A19" transform="translate(0,0)"/>
<path d="" fill="#181715" transform="translate(0,0)"/>
<path d="" fill="#181817" transform="translate(0,0)"/>
<path d="" fill="#1B1A19" transform="translate(0,0)"/>
<path d="" fill="#151512" transform="translate(0,0)"/>
<path d="" fill="#181817" transform="translate(0,0)"/>
<path d="" fill="#161817" transform="translate(0,0)"/>
<path d="" fill="#222423" transform="translate(0,0)"/>
<path d="" fill="#1A191A" transform="translate(0,0)"/>
<path d="" fill="#161515" transform="translate(0,0)"/>
<path d="" fill="#171716" transform="translate(0,0)"/>
<path d="" fill="#212525" transform="translate(0,0)"/>
<path d="" fill="#242523" transform="translate(0,0)"/>
<path d="" fill="#171815" transform="translate(0,0)"/>
<path d="" fill="#161516" transform="translate(0,0)"/>
<path d="" fill="#181718" transform="translate(0,0)"/>
<path d="" fill="#191917" transform="translate(0,0)"/>
<path d="" fill="#151516" transform="translate(0,0)"/>
<path d="" fill="#151715" transform="translate(0,0)"/>
<path d="" fill="#20211F" transform="translate(0,0)"/>
<path d="" fill="#171516" transform="translate(0,0)"/>
<path d="" fill="#1A1819" transform="translate(0,0)"/>
<path d="" fill="#191818" transform="translate(0,0)"/>
<path d="" fill="#171715" transform="translate(0,0)"/>
<path d="" fill="#151713" transform="translate(0,0)"/>
<path d="" fill="#181817" transform="translate(0,0)"/>
<path d="" fill="#202322" transform="translate(0,0)"/>
<path d="" fill="#202120" transform="translate(0,0)"/>
<path d="" fill="#232322" transform="translate(0,0)"/>
<path d="" fill="#1E2121" transform="translate(0,0)"/>
<path d="" fill="#181719" transform="translate(0,0)"/>
<path d="" fill="#151516" transform="translate(0,0)"/>
<path d="" fill="#262523" transform="translate(0,0)"/>
<path d="" fill="#212222" transform="translate(0,0)"/>
<path d="" fill="#161818" transform="translate(0,0)"/>
<path d="" fill="#181815" transform="translate(0,0)"/>
<path d="" fill="#242424" transform="translate(0,0)"/>
<path d="" fill="#241F23" transform="translate(0,0)"/>
<path d="" fill="#242421" transform="translate(0,0)"/>
<path d="" fill="#1C1D1A" transform="translate(0,0)"/>
<path d="" fill="#181816" transform="translate(0,0)"/>
<path d="" fill="#191A17" transform="translate(0,0)"/>
<path d="" fill="#171717" transform="translate(0,0)"/>
<path d="" fill="#191918" transform="translate(0,0)"/>
<path d="" fill="#20201E" transform="translate(0,0)"/>
<path d="" fill="#222122" transform="translate(0,0)"/>
<path d="" fill="#151616" transform="translate(0,0)"/>
<path d="" fill="#181818" transform="translate(0,0)"/>
<path d="" fill="#181819" transform="translate(0,0)"/>
<path d="" fill="#232221" transform="translate(0,0)"/>
<path d="" fill="#181A18" transform="translate(0,0)"/>
<path d="" fill="#181816" transform="translate(0,0)"/>
<path d="" fill="#1A1A19" transform="translate(0,0)"/>
<path d="" fill="#212323" transform="translate(0,0)"/>
<path d="" fill="#1E2020" transform="translate(0,0)"/>
<path d="" fill="#181717" transform="translate(0,0)"/>
<path d="" fill="#191918" transform="translate(0,0)"/>
<path d="" fill="#1A1918" transform="translate(0,0)"/>
<path d="" fill="#191918" transform="translate(0,0)"/>
<path d="" fill="#161817" transform="translate(0,0)"/>
<path d="" fill="#231F1F" transform="translate(0,0)"/>
<path d="" fill="#231E20" transform="translate(0,0)"/>
<path d="" fill="#1F1F1E" transform="translate(0,0)"/>
<path d="" fill="#242323" transform="translate(0,0)"/>
<path d="" fill="#22201F" transform="translate(0,0)"/>
<path d="" fill="#212122" transform="translate(0,0)"/>
<path d="" fill="#212420" transform="translate(0,0)"/>
<path d="" fill="#202120" transform="translate(0,0)"/>
<path d="" fill="#222521" transform="translate(0,0)"/>
<path d="" fill="#22201D" transform="translate(0,0)"/>
<path d="" fill="#242221" transform="translate(0,0)"/>
<path d="" fill="#242323" transform="translate(0,0)"/>
<path d="" fill="#222222" transform="translate(0,0)"/>
<path d="" fill="#222422" transform="translate(0,0)"/>
<path d="" fill="#242424" transform="translate(0,0)"/>
<path d="" fill="#242625" transform="translate(0,0)"/>
<path d="" fill="#252625" transform="translate(0,0)"/>
<path d="" fill="#242524" transform="translate(0,0)"/>
<path d="" fill="#252523" transform="translate(0,0)"/>
<path d="" fill="#21211F" transform="translate(0,0)"/>
<path d="" fill="#202220" transform="translate(0,0)"/>
<path d="" fill="#242626" transform="translate(0,0)"/>
<path d="" fill="#282725" transform="translate(0,0)"/>
<path d="" fill="#242424" transform="translate(0,0)"/>
</svg>
