<?xml version="1.0" encoding="UTF-8"?>
<svg version="1.1" xmlns="http://www.w3.org/2000/svg" width="1024" height="1024">
<path d="M0 0 C0.82886719 0.13245117 1.65773438 0.26490234 2.51171875 0.40136719 C34.56851308 5.73126093 63.98984402 17.80091036 92.06494141 33.91455078 C94.66361676 35.37224831 97.31946055 36.70021537 100 38 C100 38.66 100 39.32 100 40 C100.55171875 40.26296875 101.1034375 40.5259375 101.671875 40.796875 C109.0327306 44.60080709 116.89719991 49.35184977 123 55 C123 55.66 123 56.32 123 57 C123.58934326 57.27239502 124.17868652 57.54479004 124.78588867 57.82543945 C126.94915347 58.9730265 128.58324695 60.19040958 130.42578125 61.79296875 C131.05806641 62.34146484 131.69035156 62.88996094 132.34179688 63.45507812 C132.99212891 64.02677734 133.64246094 64.59847656 134.3125 65.1875 C134.95123047 65.73986328 135.58996094 66.29222656 136.24804688 66.86132812 C145.69441248 75.10177471 145.69441248 75.10177471 149 79 C149 79.66 149 80.32 149 81 C150.88316159 82.10836423 150.88316159 82.10836423 153 83 C153.66 82.67 154.32 82.34 155 82 C155.185625 82.825 155.37125 83.65 155.5625 84.5 C157.13872423 88.33776334 158.98536257 90.40381247 161.75 93.421875 C193.40895657 129.69776273 223.91735424 187.99709508 223 237 C218.87144368 238.15239966 214.87956979 238.14387426 210.62109375 238.1328125 C209.8126149 238.13376923 209.00413605 238.13472595 208.17115784 238.13571167 C206.46574831 238.1363909 204.76033617 238.13455456 203.05493164 238.13037109 C200.44346323 238.12501224 197.83216625 238.13032835 195.22070312 238.13671875 C193.56249962 238.13605806 191.90429622 238.13477708 190.24609375 238.1328125 C189.07414711 238.13584885 189.07414711 238.13584885 187.87852478 238.13894653 C184.65686205 238.12499 182.07850992 238.02616997 179 237 C178.19140625 234.65625 178.19140625 234.65625 177.5625 231.5 C177.30984375 230.31148437 177.0571875 229.12296875 176.796875 227.8984375 C176.53390625 226.61195313 176.2709375 225.32546875 176 224 C173.30376266 211.02105359 169.32799805 198.74810156 164.78442383 186.2956543 C164 184 164 184 163.51831055 181.76098633 C163.34726807 181.17986084 163.17622559 180.59873535 163 180 C162.34 179.67 161.68 179.34 161 179 C160.31080387 177.00765135 159.64943091 175.00566297 159 173 C157.85743787 170.41431237 156.59067003 167.89596242 155.3125 165.375 C154.95873291 164.6742334 154.60496582 163.9734668 154.24047852 163.25146484 C148.61346177 152.21380669 142.16497207 142.00366517 134.81640625 132.0390625 C134.09324219 131.05679688 133.37007812 130.07453125 132.625 129.0625 C131.95726562 128.16660156 131.28953125 127.27070313 130.6015625 126.34765625 C129 124 129 124 128 121 C127.34 121 126.68 121 126 121 C124.30859375 119.35546875 124.30859375 119.35546875 122.4375 117.1875 C121.81746094 116.47980469 121.19742187 115.77210938 120.55859375 115.04296875 C119 113 119 113 118 110 C117.01 109.67 116.02 109.34 115 109 C113.5703125 107.546875 113.5703125 107.546875 112.125 105.75 C97.88784339 88.16750058 76.79984247 74.54125889 57 64 C56.34 64 55.68 64 55 64 C55 63.34 55 62.68 55 62 C51.35206816 60.72746564 47.8063457 59.67170806 44 59 C44 58.34 44 57.68 44 57 C41.99531189 56.33177063 39.99033713 55.6643951 37.984375 55 C35.71928973 54.24101855 33.460385 53.46911839 31.203125 52.6875 C29.86458741 52.22915475 28.52604574 51.77082144 27.1875 51.3125 C26.54159912 51.08602783 25.89569824 50.85955566 25.23022461 50.6262207 C21.91752766 49.49898055 19.55272308 49 16 49 C16 48.34 16 47.68 16 47 C14.56274129 46.83126522 13.12518162 46.66509263 11.6875 46.5 C10.88699219 46.4071875 10.08648438 46.314375 9.26171875 46.21875 C6.88103445 45.95186537 6.88103445 45.95186537 4 46 C1.6485148 45.04346365 -0.68745988 44.04718798 -3 43 C-3.33 43.66 -3.66 44.32 -4 45 C-4.33 44.01 -4.66 43.02 -5 42 C-12.74818921 41.35813817 -20.40711439 40.88551043 -28.18359375 41.0625 C-31.5166627 40.98853453 -34.70115009 40.47976904 -38 40 C-40.80971316 39.75910071 -43.62199775 39.59463233 -46.4375 39.4375 C-47.16904297 39.39431641 -47.90058594 39.35113281 -48.65429688 39.30664062 C-50.43604715 39.20183179 -52.21800402 39.10054479 -54 39 C-54.33 39.66 -54.66 40.32 -55 41 C-55.72960937 40.96519531 -56.45921875 40.93039062 -57.2109375 40.89453125 C-106.14469225 39.62587835 -157.80196778 65.89341848 -192.61010742 98.81860352 C-194.41206885 100.54028999 -196.20711594 102.26886855 -198 104 C-198.74540039 104.7125293 -198.74540039 104.7125293 -199.50585938 105.43945312 C-205.56290185 111.24020325 -210.91859973 117.33439847 -216 124 C-216.71929687 124.91394531 -217.43859375 125.82789063 -218.1796875 126.76953125 C-224.14579588 134.4800554 -229.19549133 142.53790734 -234 151 C-234.51626953 151.90274658 -234.51626953 151.90274658 -235.04296875 152.82373047 C-250.17826574 179.50621525 -259.28539772 208.71796294 -262.875 239.125 C-263.00737061 240.24583984 -263.13974121 241.36667969 -263.27612305 242.52148438 C-264.04976922 248.82103227 -264.04976922 248.82103227 -263 255 C-263.33 255 -263.66 255 -264 255 C-265.33752319 297.99889376 -255.77521058 343.5666912 -232 380 C-231.63648438 380.56428711 -231.27296875 381.12857422 -230.8984375 381.70996094 C-225.66265421 389.82120263 -220.23897717 397.61758039 -214 405 C-213.54334961 405.54543457 -213.08669922 406.09086914 -212.61621094 406.65283203 C-203.49932173 418.76018026 -203.49932173 418.76018026 -192 428 C-192 428.66 -192 429.32 -192 430 C-191.01 430.33 -190.02 430.66 -189 431 C-189 431.66 -189 432.32 -189 433 C-188.18595703 433.35771484 -188.18595703 433.35771484 -187.35546875 433.72265625 C-184.39186766 435.32978321 -181.94550296 437.33042337 -179.3125 439.4375 C-171.56059045 445.51431767 -163.36480636 450.81216286 -155 456 C-153.32357422 457.04994141 -153.32357422 457.04994141 -151.61328125 458.12109375 C-117.94651404 478.30490956 -78.47348305 488.2499422 -39.4375 488.1875 C-38.68066925 488.18656342 -37.9238385 488.18562683 -37.14407349 488.18466187 C-25.97295469 488.15470061 -15.02734984 487.89996665 -4 486 C-3.1018457 485.8546582 -2.20369141 485.70931641 -1.27832031 485.55957031 C35.6408206 479.45310296 69.5648743 465.08554858 99 442 C100.29164063 441.01580078 100.29164063 441.01580078 101.609375 440.01171875 C110.01401995 433.49942398 117.41739993 426.05340241 124.3046875 417.96484375 C125.44779985 416.63999234 126.62087394 415.34048798 127.8203125 414.06640625 C144.98882281 395.68150351 156.72010936 372.37017674 166.0625 349.25 C166.37396973 348.49936279 166.68543945 347.74872559 167.00634766 346.9753418 C168.58384998 342.94918598 169.4357738 340.16784623 168 336 C167.401875 335.855625 166.80375 335.71125 166.1875 335.5625 C164.43849596 335.1127561 162.71322977 334.57107659 161 334 C158.64319787 333.91602843 156.28405919 333.89271813 153.92578125 333.90234375 C153.2419487 333.9037587 152.55811615 333.90517365 151.8535614 333.90663147 C149.67316278 333.91222124 147.49286749 333.92477178 145.3125 333.9375 C143.83268378 333.94251633 142.35286594 333.947079 140.87304688 333.95117188 C137.24866443 333.96218729 133.6243423 333.97944488 130 334 C129.83129395 334.68094727 129.66258789 335.36189453 129.48876953 336.06347656 C127.80245144 342.58570887 125.68772152 348.6336806 122.875 354.75 C122.2862207 356.03970703 122.2862207 356.03970703 121.68554688 357.35546875 C113.93026468 374.00396929 103.65750379 388.67203454 91 402 C90.55285645 402.474375 90.10571289 402.94875 89.64501953 403.4375 C78.65944736 415.02269661 66.7457122 423.87210061 53 432 C52.11699219 432.57234375 51.23398437 433.1446875 50.32421875 433.734375 C13.54056899 456.94374011 -34.12826773 461.4549613 -76 453 C-78.35995355 452.39687066 -80.67132787 451.7181886 -83 451 C-83.33 451.66 -83.66 452.32 -84 453 C-84 452.01 -84 451.02 -84 450 C-85.7015625 449.690625 -85.7015625 449.690625 -87.4375 449.375 C-118.36253273 442.39505531 -146.47480407 423.75589279 -169 402 C-169.99451097 401.06871058 -170.98930622 400.13772464 -171.984375 399.20703125 C-180.03881767 391.55048379 -186.59104149 383.05417064 -193 374 C-193.44617676 373.38253906 -193.89235352 372.76507812 -194.35205078 372.12890625 C-221.45015467 334.50108002 -232.72798095 281.985915 -225.41113281 236.35351562 C-220.45637463 207.99017306 -211.19092002 181.92817383 -195 158 C-195.33 157.34 -195.66 156.68 -196 156 C-195.41605469 155.76152344 -194.83210938 155.52304687 -194.23046875 155.27734375 C-191.54108344 153.73718789 -190.17808973 152.02702092 -188.3125 149.5625 C-187.71050781 148.78003906 -187.10851562 147.99757813 -186.48828125 147.19140625 C-184.84350671 144.98284299 -184.84350671 144.98284299 -184 142 C-182.6171875 140.67578125 -182.6171875 140.67578125 -180.875 139.3125 C-177.29409101 136.38132295 -174.40620288 133.11421587 -171.48046875 129.5390625 C-170.99191406 129.03117188 -170.50335938 128.52328125 -170 128 C-169.34 128 -168.68 128 -168 128 C-168 127.34 -168 126.68 -168 126 C-162.11368887 120.50536356 -155.51668287 115.82823772 -148.80078125 111.41015625 C-148.20652344 110.94480469 -147.61226562 110.47945313 -147 110 C-147 109.34 -147 108.68 -147 108 C-146.15501953 107.84724609 -146.15501953 107.84724609 -145.29296875 107.69140625 C-142.54452284 106.8626585 -140.67698268 105.56702574 -138.3125 103.9375 C-100.54030416 79.52011746 -54.18985941 73.91217061 -10.49609375 80.63623047 C-6.67383583 81.19326923 -2.84139047 81.59790323 1 82 C1 82.66 1 83.32 1 84 C1.53625 84.07476562 2.0725 84.14953125 2.625 84.2265625 C25.9175149 88.13418836 49.92442661 101.21462127 67.87109375 116.24609375 C69.8918854 117.91092944 71.96302508 119.40073082 74.125 120.875 C75.07375 121.57625 76.0225 122.2775 77 123 C77 123.66 77 124.32 77 125 C77.53496094 125.21140625 78.06992187 125.4228125 78.62109375 125.640625 C81.91304276 127.52173872 84.4153825 130.07620338 87.0625 132.75 C87.63250732 133.32419678 88.20251465 133.89839355 88.78979492 134.48999023 C101.8612608 147.90290888 112.107895 163.57748813 121 180 C121.50297607 180.9278833 121.50297607 180.9278833 122.01611328 181.87451172 C130.86007542 198.38860873 140.61138089 218.92491627 140 238 C139.01 237.67 138.02 237.34 137 237 C137 237.66 137 238.32 137 239 C137.66 239.33 138.32 239.66 139 240 C136.61435923 239.42415568 134.33317216 238.77772405 132 238 C130.44369456 237.90790843 128.88373406 237.87209149 127.32470703 237.87060547 C126.36740189 237.86748856 125.41009674 237.86437164 124.42378235 237.86116028 C122.85662727 237.86414375 122.85662727 237.86414375 121.2578125 237.8671875 C120.16272873 237.86591354 119.06764496 237.86463959 117.93937683 237.86332703 C114.33455841 237.86150787 110.72981115 237.86791564 107.125 237.875 C105.28172623 237.87583084 105.28172623 237.87583084 103.4012146 237.87667847 C84.58302097 237.88661698 65.78002814 238.12983806 46.97119141 238.73193359 C38.33502654 238.99452348 29.70432473 239.09090153 21.06640625 238.85546875 C20.23571121 238.85019669 19.40501617 238.84492462 18.54914856 238.8394928 C14.48100089 238.6799818 11.88659646 238.37460877 8.86621094 235.50976562 C6.65421553 232.7859752 4.8479181 229.97790939 3 227 C1.22689535 225.2421676 1.22689535 225.2421676 -0.5625 223.9375 C-1.7690625 222.9784375 -1.7690625 222.9784375 -3 222 C-3 221.34 -3 220.68 -3 220 C-3.51820313 219.75378906 -4.03640625 219.50757813 -4.5703125 219.25390625 C-8.37468075 217.29055865 -12.03301325 215.05655647 -15.69140625 212.83398438 C-19.46404126 210.62032327 -22.64558345 209.4327784 -27 209 C-27 208.34 -27 207.68 -27 207 C-44.33620824 204.80851544 -58.67253776 206.03817762 -74 215 C-74.66 215.66 -75.32 216.32 -76 217 C-77.2375 217.433125 -77.2375 217.433125 -78.5 217.875 C-81.53686512 219.2415893 -81.65544865 220.05879393 -83 223 C-83.721875 223.66 -84.44375 224.32 -85.1875 225 C-95.95546142 235.44938268 -99.83215783 251.59471475 -100.25 266.0625 C-100.01970942 282.87371249 -94.13987894 298.82196299 -82.26953125 310.89453125 C-69.99533294 322.28143811 -56.50091879 328.4527301 -39.61010742 327.92285156 C-32.41440014 327.56758562 -25.72484854 326.73975311 -19 324 C-18.36578125 323.75765625 -17.7315625 323.5153125 -17.078125 323.265625 C-5.36015513 318.13296051 4.61091691 308.61979119 11.31965637 297.88922119 C13 296 13 296 15.06913757 295.51898193 C15.8618959 295.52786438 16.65465424 295.53674683 17.47143555 295.54589844 C18.37214279 295.54620056 19.27285004 295.54650269 20.20085144 295.54681396 C21.16968765 295.56745911 22.13852386 295.58810425 23.13671875 295.609375 C24.13129593 295.61503479 25.12587311 295.62069458 26.15058899 295.62652588 C29.33004711 295.6489328 32.508382 295.69913795 35.6875 295.75 C37.84178061 295.77005938 39.99607887 295.78831113 42.15039062 295.8046875 C47.43397758 295.84881148 52.71690855 295.91576621 58 296 C57.70997401 297.41561717 57.4130287 298.82981756 57.11328125 300.2434082 C56.94868408 301.03109085 56.78408691 301.8187735 56.61450195 302.63032532 C55.62580375 306.44299523 53.88817381 309.75038912 52 313.1875 C51.60409668 313.91727051 51.20819336 314.64704102 50.80029297 315.39892578 C36.96098054 340.34874854 16.0081991 359.57495325 -11.5625 367.875 C-23.11650129 371.11620417 -34.57458967 372.27034725 -46.54296875 372.01489258 C-50.39630932 371.84481818 -50.39630932 371.84481818 -54 373 C-54 372.34 -54 371.68 -54 371 C-54.9075 370.896875 -55.815 370.79375 -56.75 370.6875 C-76.37274946 367.8332819 -97.20203197 358.52417687 -111 344 C-111.928125 343.113125 -112.85625 342.22625 -113.8125 341.3125 C-116 339 -116 339 -116 337 C-116.66 337 -117.32 337 -118 337 C-129.37925213 323.46334319 -136.38675227 307.93399471 -141 291 C-141.23460937 290.21753906 -141.46921875 289.43507813 -141.7109375 288.62890625 C-148.02663534 265.150986 -142.88682677 237.75243138 -131.55078125 216.69140625 C-131.03902344 215.80324219 -130.52726563 214.91507813 -130 214 C-129.21689453 212.62134766 -129.21689453 212.62134766 -128.41796875 211.21484375 C-124.59661941 204.85189439 -120.12558445 199.57029058 -115.0390625 194.21484375 C-112.97197354 192.17460522 -112.97197354 192.17460522 -112 190 C-110.34201563 188.98566987 -108.67376683 187.98807003 -107 187 C-105.33351537 185.71382248 -103.68785677 184.40027389 -102.0625 183.0625 C-92.09944751 175 -92.09944751 175 -89 175 C-88.67 174.34 -88.34 173.68 -88 173 C-85.90788949 172.04904068 -83.77501479 171.18659499 -81.625 170.375 C-80.46226562 169.92898438 -79.29953125 169.48296875 -78.1015625 169.0234375 C-75 168 -75 168 -72 168 C-71.67 167.34 -71.34 166.68 -71 166 C-69.30444336 165.49755859 -69.30444336 165.49755859 -67.08984375 165.1484375 C-66.27306152 165.01904785 -65.4562793 164.8896582 -64.61474609 164.75634766 C-63.73125488 164.63050293 -62.84776367 164.5046582 -61.9375 164.375 C-61.03080566 164.24528809 -60.12411133 164.11557617 -59.18994141 163.98193359 C-31.10204131 160.21747412 -4.47282696 166.66371082 18.4375 183.5 C21.17656828 185.60761895 23.70367391 187.66974344 26.01489258 190.24560547 C31.48711809 195.99990446 35.5559989 197.97365249 43.55259705 198.18707275 C45.64045093 198.19539747 47.72498983 198.16091207 49.8125 198.125 C51.19860648 198.13669025 52.58468563 198.15229618 53.97070312 198.171875 C62.34608804 198.24687734 70.66100651 197.78583624 79 197 C65.92602294 171.28916973 43.75161854 147.91081659 16.75 136.89453125 C15 136 15 136 14 134 C11.97936601 133.26839114 9.95065175 132.55564415 7.8984375 131.91796875 C5.80617543 131.2553251 3.72935609 130.54322286 1.6640625 129.80078125 C-30.09990399 118.52423451 -65.36784429 119.49440659 -96 134 C-97.10472656 134.50144531 -98.20945312 135.00289062 -99.34765625 135.51953125 C-111.67387622 141.34820891 -122.27126849 148.96820065 -132.109375 158.3828125 C-134 160 -134 160 -136 160 C-136 160.66 -136 161.32 -136 162 C-137.1126918 163.14746341 -138.23328561 164.28787762 -139.3828125 165.3984375 C-145.72956793 171.68387162 -151.10329128 178.54444111 -156 186 C-156.49113281 186.73347656 -156.98226562 187.46695313 -157.48828125 188.22265625 C-165.00574753 200.03581754 -170.43810728 213.49955782 -174 227 C-174.41185547 228.42505859 -174.41185547 228.42505859 -174.83203125 229.87890625 C-184.04666963 264.69480593 -178.32344752 304.7088937 -160.53515625 335.9140625 C-153.65005969 347.35518888 -144.20035069 361.53309954 -133 369 C-133 369.66 -133 370.32 -133 371 C-132.17242187 371.36931641 -132.17242187 371.36931641 -131.328125 371.74609375 C-128.53764137 373.24902201 -126.23533588 375.09436391 -123.75 377.0625 C-110.00256697 387.6131059 -88.37415405 401.10365976 -70.75 400.9765625 C-68 401 -68 401 -66 403 C-38.86036076 410.3277026 -2.87939722 404.77168429 22 392 C22.60279785 391.70109863 23.2055957 391.40219727 23.82666016 391.09423828 C34.68990921 385.69467766 45.13407833 380.00154992 53.703125 371.234375 C56 369 56 369 58 369 C58 368.34 58 367.68 58 367 C58.66 366.34 59.32 365.68 60 365 C60 364.34 60 363.68 60 363 C60.78375 362.9175 61.5675 362.835 62.375 362.75 C63.24125 362.5025 64.1075 362.255 65 362 C65.70640517 360.68728756 66.36698535 359.34963501 67 358 C68.03318125 356.62333369 69.09863045 355.2705554 70.1875 353.9375 C82.26983384 338.55316188 88.7196491 321.89208131 94.24145508 303.34912109 C95.04549057 300.85912124 96.02822081 298.42944799 97 296 C138.25 296 179.5 296 222 296 C223.96901424 299.93802848 222.2591037 305.06814856 221.6875 309.3125 C221.55666016 310.35857422 221.42582031 311.40464844 221.29101562 312.48242188 C221.15759766 313.49498047 221.02417969 314.50753906 220.88671875 315.55078125 C220.76514404 316.47544189 220.64356934 317.40010254 220.51831055 318.3527832 C219.98066628 321.09874494 219.07203526 323.42196086 218 326 C217.64026801 327.36876 217.31537377 328.74718999 217.02734375 330.1328125 C209.85445547 363.11735773 197.40222764 395.21953769 178 423 C178.33 423.66 178.66 424.32 179 425 C178.01 425.33 177.02 425.66 176 426 C174.178958 428.17458278 174.178958 428.17458278 172.375 430.875 C163.06840394 444.00576099 152.51028363 456.78752357 140 467 C139.26394531 467.74894531 138.52789063 468.49789063 137.76953125 469.26953125 C92.58027304 513.82142334 23.30571395 536.63029957 -39.05859375 537.09375 C-44.85321151 537.05031279 -50.60131502 536.73162593 -56.375 536.25 C-57.40012695 536.16492188 -58.42525391 536.07984375 -59.48144531 535.9921875 C-69.34597238 535.09623782 -78.98721367 533.37012484 -88.69433594 531.44189453 C-92.56581714 530.69990163 -96.46367789 530.13437722 -100.3671875 529.58984375 C-103.29350925 528.93424348 -106.0036196 527.91134499 -108.79541016 526.82739258 C-111.06884119 525.97416359 -113.35629399 525.22288722 -115.671875 524.4921875 C-128.23515516 520.50792474 -140.08878872 515.62057157 -152 510 C-153.50462613 509.30082905 -155.00981563 508.60286893 -156.515625 507.90625 C-162.04845021 505.34260105 -167.54608813 502.72695593 -173 500 C-173 499.34 -173 498.68 -173 498 C-173.67933594 497.76410156 -174.35867188 497.52820313 -175.05859375 497.28515625 C-178.66315916 495.71025317 -181.8203443 493.6378169 -185.0625 491.4375 C-186.05431274 490.76823486 -186.05431274 490.76823486 -187.06616211 490.08544922 C-198.33398823 482.42522691 -208.7752265 473.98126198 -219 465 C-219.89847656 464.21496094 -220.79695313 463.42992187 -221.72265625 462.62109375 C-227.31329925 457.66836881 -232.56439429 452.45959739 -237.75 447.08984375 C-239.73243065 444.77315044 -239.73243065 444.77315044 -242 445 C-242.2371875 444.27683594 -242.474375 443.55367187 -242.71875 442.80859375 C-244.20437683 439.55199102 -246.00560815 437.62398783 -248.5 435.0625 C-254.33895007 428.81009826 -259.17666581 422.04948843 -264 415 C-264.64710938 414.06929687 -265.29421875 413.13859375 -265.9609375 412.1796875 C-270 406.282277 -270 406.282277 -270 404 C-270.66 403.67 -271.32 403.34 -272 403 C-273.32066909 400.7483187 -274.55272776 398.5036786 -275.75 396.1875 C-276.10126953 395.5169458 -276.45253906 394.8463916 -276.81445312 394.15551758 C-277.88353359 392.10733596 -278.94293676 390.05440539 -280 388 C-280.31646484 387.38898438 -280.63292969 386.77796875 -280.95898438 386.1484375 C-286 376.39445499 -286 376.39445499 -286 374 C-286.99 374.33 -287.98 374.66 -289 375 C-290 370 -290 370 -290.33984375 367.83203125 C-291.0409309 364.82440888 -292.09115846 362.0448116 -293.22192383 359.17529297 C-299.21678717 343.90532746 -303.11868148 327.922357 -306.5769043 311.90673828 C-306.86492368 310.6087398 -307.18066642 309.31665385 -307.52050781 308.03125 C-321.73534867 247.81359423 -301.80288806 177.18497669 -272 125 C-271.43410156 124.27296875 -270.86820312 123.5459375 -270.28515625 122.796875 C-268.78442767 120.69859188 -268.52497476 119.29969706 -268.3125 116.75 C-268.209375 115.5125 -268.10625 114.275 -268 113 C-266.68 113 -265.36 113 -264 113 C-262.05241095 110.94253493 -262.05241095 110.94253493 -260.3125 108.1875 C-256.82179259 103.13601247 -253.12171188 98.38630292 -249.1953125 93.66796875 C-247.82803202 92.00630938 -246.48466056 90.32430816 -245.1796875 88.61328125 C-240.96849823 83.09862864 -236.33376271 78.15224982 -231.4375 73.25 C-230.81214355 72.62383789 -230.18678711 71.99767578 -229.54248047 71.35253906 C-218.05414548 60 -218.05414548 60 -215 60 C-215 59.34 -215 58.68 -215 58 C-212.68466034 56.07714236 -210.36209849 54.27648786 -207.9375 52.5 C-207.21159668 51.96391113 -206.48569336 51.42782227 -205.73779297 50.87548828 C-146.00661515 7.09164033 -73.35651079 -11.75721211 0 0 Z M170 333 C170 333.99 170 334.98 170 336 C170.66 335.01 171.32 334.02 172 333 C171.34 333 170.68 333 170 333 Z M-289 370 C-288 372 -288 372 -288 372 Z " fill="#F8F8F8" transform="translate(556,223)"/>
<path d="M0 0 C3.55302089 3.20171096 5.88427451 6.79508954 8.1875 10.9375 C8.76624878 11.97825684 8.76624878 11.97825684 9.35668945 13.04003906 C18.91391417 30.64901759 29.40041193 52.57899154 29 73 C28.01 72.67 27.02 72.34 26 72 C26 72.66 26 73.32 26 74 C26.66 74.33 27.32 74.66 28 75 C25.61435923 74.42415568 23.33317216 73.77772405 21 73 C19.44369456 72.90790843 17.88373406 72.87209149 16.32470703 72.87060547 C15.36740189 72.86748856 14.41009674 72.86437164 13.42378235 72.86116028 C12.3790123 72.86314926 11.33424225 72.86513824 10.2578125 72.8671875 C9.16272873 72.86591354 8.06764496 72.86463959 6.93937683 72.86332703 C3.33455841 72.86150787 -0.27018885 72.86791564 -3.875 72.875 C-5.71827377 72.87583084 -5.71827377 72.87583084 -7.5987854 72.87667847 C-26.41697903 72.88661698 -45.21997186 73.12983806 -64.02880859 73.73193359 C-72.66497346 73.99452348 -81.29567527 74.09090153 -89.93359375 73.85546875 C-90.76428879 73.85019669 -91.59498383 73.84492462 -92.45085144 73.8394928 C-96.51899911 73.6799818 -99.11340354 73.37460877 -102.13378906 70.50976562 C-104.34578447 67.7859752 -106.1520819 64.97790939 -108 62 C-109.77310465 60.2421676 -109.77310465 60.2421676 -111.5625 58.9375 C-112.7690625 57.9784375 -112.7690625 57.9784375 -114 57 C-114 56.34 -114 55.68 -114 55 C-110.19263971 56.5385908 -108.06130455 58.87834716 -105.375 61.9375 C-104.21097656 63.25041016 -104.21097656 63.25041016 -103.0234375 64.58984375 C-101 67 -101 67 -99 70 C-96.69821927 70.4472879 -96.69821927 70.4472879 -93.9760437 70.36076355 C-92.38164459 70.36694954 -92.38164459 70.36694954 -90.7550354 70.3732605 C-89.5840329 70.36247467 -88.4130304 70.35168884 -87.20654297 70.34057617 C-85.97730103 70.34101425 -84.74805908 70.34145233 -83.48156738 70.34190369 C-80.10554596 70.34016852 -76.73007111 70.32509675 -73.35414648 70.30418181 C-69.82808375 70.28546082 -66.30201418 70.2836682 -62.77590942 70.28010559 C-56.09645407 70.27077161 -49.41714556 70.24613967 -42.73775494 70.21605712 C-35.13448822 70.18255507 -27.53121458 70.16603769 -19.92789245 70.15097082 C-4.28517651 70.11959118 11.35739283 70.06680456 27 70 C26.52547523 67.59245867 26.04914641 65.18529785 25.57177734 62.77832031 C25.43831406 62.10020294 25.30485077 61.42208557 25.16734314 60.72341919 C21.34155994 41.47378142 12.66537266 21.84329605 2.09765625 5.3203125 C0 2 0 2 0 0 Z " fill="#929394" transform="translate(667,388)"/>
<path d="M0 0 C0 0.33 0 0.66 0 1 C-9.52245158 2.04377631 -18.491862 1.85481185 -28 1 C-28.33 1.66 -28.66 2.32 -29 3 C-29.72960937 2.96519531 -30.45921875 2.93039062 -31.2109375 2.89453125 C-71.55486649 1.84857754 -116.48313734 20.63875157 -148 45 C-148.66 44.67 -149.32 44.34 -150 44 C-140.63319015 36.39635436 -130.65011941 30.61311964 -120 25 C-119.3188916 24.63487305 -118.6377832 24.26974609 -117.93603516 23.89355469 C-83.40197559 5.43789887 -39.12393514 -5.49107862 0 0 Z " fill="#7C7D7F" transform="translate(530,261)"/>
<path d="M0 0 C0.79719955 0.00222061 1.59439911 0.00444122 2.41575623 0.00672913 C3.31661453 0.00680466 4.21747284 0.00688019 5.14562988 0.00695801 C6.12478867 0.01211929 7.10394745 0.01728058 8.11277771 0.02259827 C9.11018478 0.02401321 10.10759186 0.02542816 11.13522339 0.02688599 C14.3348027 0.03250337 17.53431315 0.04505881 20.73387146 0.05775452 C22.89728191 0.06276728 25.06069345 0.06733057 27.22410583 0.07142639 C32.53988471 0.08247845 37.85562317 0.09923348 43.17137146 0.12025452 C41.38324833 7.08443737 39.35545501 13.8236854 36.67137146 20.49525452 C36.33605408 21.33161438 36.00073669 22.16797424 35.65525818 23.02967834 C32.86649484 29.79584797 29.67885428 36.32020595 26.29637146 42.80775452 C25.82006287 43.72282776 25.34375427 44.637901 24.85301208 45.58070374 C21.43352356 51.98917847 21.43352356 51.98917847 19.17137146 53.12025452 C20.71169955 48.99285606 22.62056616 45.08098083 24.54905701 41.12611389 C28.3926731 33.22252159 32.09397504 25.2820699 35.35887146 17.12025452 C35.66204285 16.38589172 35.96521423 15.65152893 36.27757263 14.89491272 C37.8191995 10.93119299 38.55507625 8.21538084 37.17137146 4.12025452 C36.57324646 3.97587952 35.97512146 3.83150452 35.35887146 3.68275452 C33.60986742 3.23301062 31.88460123 2.69133111 30.17137146 2.12025452 C27.81456933 2.03628294 25.45543065 2.01297264 23.09715271 2.02259827 C22.41332016 2.02401321 21.72948761 2.02542816 21.02493286 2.02688599 C18.84453424 2.03247575 16.66423895 2.0450263 14.48387146 2.05775452 C13.00405524 2.06277084 11.5242374 2.06733352 10.04441833 2.07142639 C6.42003589 2.08244181 2.79571376 2.09969939 -0.82862854 2.12025452 C-0.99733459 2.80120178 -1.16604065 3.48214905 -1.33985901 4.18373108 C-3.02623683 10.70619438 -5.14183374 16.75335681 -7.95362854 22.87025452 C-8.53479431 24.14799744 -8.53479431 24.14799744 -9.12770081 25.45155334 C-19.00314213 46.70751131 -19.00314213 46.70751131 -23.82862854 49.12025452 C-22.50917884 45.46209766 -20.77765584 42.20302387 -18.80763245 38.8551178 C-12.13609605 27.50317328 -6.739422 15.55816418 -3.33644104 2.80775452 C-2.64598863 0.51332806 -2.42306246 0.15934576 0 0 Z M39.17137146 1.12025452 C39.17137146 2.11025452 39.17137146 3.10025452 39.17137146 4.12025452 C39.83137146 3.13025452 40.49137146 2.14025452 41.17137146 1.12025452 C40.51137146 1.12025452 39.85137146 1.12025452 39.17137146 1.12025452 Z " fill="#797B7C" transform="translate(686.8286285400391,554.8797454833984)"/>
<path d="M0 0 C0.66 0.33 1.32 0.66 2 1 C0.21229099 3.06997885 -0.95424891 3.98326179 -3.5625 4.9375 C-6.56284338 6.24534199 -6.67560021 7.10287546 -8 10 C-9.0828125 10.99 -9.0828125 10.99 -10.1875 12 C-20.95546142 22.44938268 -24.83215783 38.59471475 -25.25 53.0625 C-25.01976417 69.86971581 -19.14217687 85.83644436 -7.26171875 97.8984375 C-6.51535156 98.59195313 -5.76898438 99.28546875 -5 100 C-3.98873047 100.94746094 -3.98873047 100.94746094 -2.95703125 101.9140625 C3.53894806 107.44722311 11.24072082 110.63662338 19 114 C14.40536798 115.53154401 11.43379719 113.4637812 7.12890625 111.578125 C2.53831198 109.26276909 -1.18994844 106.42973788 -5 103 C-5.76183594 102.319375 -6.52367187 101.63875 -7.30859375 100.9375 C-18.86861508 90.02078508 -26.76445797 75.12549746 -27.2734375 59.0078125 C-27.56691734 46.9689822 -27.07906054 37.10118272 -22 26 C-21.56558594 25.0203125 -21.13117188 24.040625 -20.68359375 23.03125 C-15.98914792 13.50861344 -8.97774212 5.62413787 0 0 Z " fill="#7B7D80" transform="translate(481,436)"/>
<path d="M0 0 C10.99942544 1.73157324 22.66281193 10.09404808 30.04125977 18.25878906 C35.5062184 24.00921785 39.56273342 25.97370527 47.5526886 26.18711853 C49.64050982 26.19539723 51.72502255 26.1609115 53.8125 26.125 C55.19860648 26.13669025 56.58468563 26.15229618 57.97070312 26.171875 C66.34608804 26.24687734 74.66100651 25.78583624 83 25 C81.89993968 22.91440619 80.79514118 20.83156311 79.6875 18.75 C79.07261719 17.58984375 78.45773437 16.4296875 77.82421875 15.234375 C76.35513687 12.62966452 74.86856064 10.32276461 73 8 C73.33 7.34 73.66 6.68 74 6 C87 23.25806452 87 23.25806452 87 28 C80.2423794 28.2810943 73.48628604 28.47241795 66.72412109 28.60424805 C64.42895188 28.65924824 62.13416243 28.73407979 59.84033203 28.82983398 C38.69673964 29.68974085 38.69673964 29.68974085 32.2991333 24.24775696 C30.04418052 21.96385325 28.05079854 19.46684125 26 17 C18.15668965 10.46650615 9.05749761 5.61028111 0 1 C0 0.67 0 0.34 0 0 Z " fill="#909293" transform="translate(552,395)"/>
<path d="M0 0 C0.33 0 0.66 0 1 0 C1.11480713 0.76739502 1.22961426 1.53479004 1.34790039 2.32543945 C6.94112881 39.12270721 15.77084873 76.08348769 35.87890625 107.98046875 C36.24886719 108.64691406 36.61882812 109.31335938 37 110 C36.67 110.66 36.34 111.32 36 112 C34.41040854 109.35775923 32.82830128 106.71147477 31.25 104.0625 C30.8065625 103.32708984 30.363125 102.59167969 29.90625 101.83398438 C22 88.5212546 22 88.5212546 22 84 C20.515 84.495 20.515 84.495 19 85 C18 80 18 80 17.66015625 77.83203125 C16.9590691 74.82440888 15.90884154 72.0448116 14.77807617 69.17529297 C8.78321283 53.90532746 4.88131852 37.922357 1.4230957 21.90673828 C1.13217393 20.59565979 0.80638813 19.29198796 0.45214844 17.99658203 C-0.3114459 14.62472756 -0.10199646 11.18923053 -0.0625 7.75 C-0.05798828 7.00492188 -0.05347656 6.25984375 -0.04882812 5.4921875 C-0.03709246 3.6614236 -0.0191585 1.83070127 0 0 Z M19 80 C20 82 20 82 20 82 Z " fill="#797A7C" transform="translate(248,513)"/>
<path d="M0 0 C-2.6818323 1.43223976 -5.17106 2.4064748 -8.125 3.11328125 C-8.90786377 3.30647949 -9.69072754 3.49967773 -10.49731445 3.69873047 C-11.32320068 3.90127441 -12.14908691 4.10381836 -13 4.3125 C-20.66628986 6.2704972 -27.83164999 8.60548961 -35 12 C-36.10472656 12.50144531 -37.20945312 13.00289063 -38.34765625 13.51953125 C-50.67387622 19.34820891 -61.27126849 26.96820065 -71.109375 36.3828125 C-73 38 -73 38 -75 38 C-75 38.66 -75 39.32 -75 40 C-76.10820238 41.1428337 -77.22511504 42.27802207 -78.375 43.37890625 C-80.34358339 45.34275746 -82.16482058 47.41109312 -84 49.5 C-86.89912147 52.78896546 -89.85168094 55.95006591 -93 59 C-81.25250367 33.81876384 -51.04486215 14.71180817 -25.96484375 5.45703125 C-17.58667468 2.52493146 -8.97395222 -0.46020268 0 0 Z " fill="#7A7B7D" transform="translate(495,345)"/>
<path d="M0 0 C0.33 0 0.66 0 1 0 C-0.4493014 21.67784862 -0.4493014 21.67784862 -1.90625 25.17578125 C-3.10434013 28.26942113 -3.79082792 31.29667444 -4.49438477 34.53198242 C-9.55229454 57.61752592 -17.20171607 81.38640367 -29 102 C-29.99 102.495 -29.99 102.495 -31 103 C-30.29685295 99.6453208 -29.05548405 96.78218146 -27.59375 93.6875 C-16.70951462 70.2269946 -8.86056979 46.43816453 -4 21 C-3.60423141 18.96873738 -3.20839725 16.93748754 -2.8125 14.90625 C-1.8523431 9.94156611 -0.91855987 4.97253919 0 0 Z " fill="#78797B" transform="translate(777,521)"/>
<path d="M0 0 C6.96884089 -0.21815502 13.46817497 0.32497106 20.3125 1.625 C21.73864624 1.89340698 21.73864624 1.89340698 23.19360352 2.16723633 C47.96211408 7.01943318 71.71859164 15.31705422 93 29 C92.34 29.33 91.68 29.66 91 30 C88.65234375 29.07421875 88.65234375 29.07421875 85.9375 27.6875 C85.03902344 27.23761719 84.14054688 26.78773438 83.21484375 26.32421875 C81 25 81 25 80 23 C76.39036593 21.60536866 72.80668696 20.67176829 69 20 C69 19.34 69 18.68 69 18 C66.99531189 17.33177063 64.99033713 16.6643951 62.984375 16 C60.71928973 15.24101855 58.460385 14.46911839 56.203125 13.6875 C54.86458741 13.22915475 53.52604574 12.77082144 52.1875 12.3125 C51.54159912 12.08602783 50.89569824 11.85955566 50.23022461 11.6262207 C46.91752766 10.49898055 44.55272308 10 41 10 C41 9.34 41 8.68 41 8 C39.56274129 7.83126522 38.12518162 7.66509263 36.6875 7.5 C35.48673828 7.36078125 35.48673828 7.36078125 34.26171875 7.21875 C31.88103445 6.95186537 31.88103445 6.95186537 29 7 C26.6485148 6.04346365 24.31254012 5.04718798 22 4 C21.67 4.66 21.34 5.32 21 6 C20.67 5.01 20.34 4.02 20 3 C19.05898438 2.93941406 18.11796875 2.87882812 17.1484375 2.81640625 C15.90320313 2.73261719 14.65796875 2.64882813 13.375 2.5625 C12.14523437 2.48128906 10.91546875 2.40007812 9.6484375 2.31640625 C6.38467612 2.03336056 3.22056141 1.58961047 0 1 C0 0.67 0 0.34 0 0 Z " fill="#808083" transform="translate(531,262)"/>
<path d="M0 0 C4.54977498 1.3442517 8.64077678 3.22624972 12.8737793 5.32495117 C40.46745771 18.98455306 69.55314619 26.85749032 100 31 C100 31.33 100 31.66 100 32 C70.248047 32.9850432 39.350414 20.86353544 13 8 C11.71785539 7.39106839 10.43532614 6.78294572 9.15234375 6.17578125 C1.15680416 2.31360833 1.15680416 2.31360833 0 0 Z " fill="#787A7C" transform="translate(391,725)"/>
<path d="M0 0 C0.79719955 0.00222061 1.59439911 0.00444122 2.41575623 0.00672913 C3.31661453 0.00680466 4.21747284 0.00688019 5.14562988 0.00695801 C6.12478867 0.01211929 7.10394745 0.01728058 8.11277771 0.02259827 C9.11018478 0.02401321 10.10759186 0.02542816 11.13522339 0.02688599 C14.3348027 0.03250337 17.53431315 0.04505881 20.73387146 0.05775452 C22.89728191 0.06276728 25.06069345 0.06733057 27.22410583 0.07142639 C32.53988471 0.08247845 37.85562317 0.09923348 43.17137146 0.12025452 C41.24599257 9.64330199 41.24599257 9.64330199 39.14793396 13.57728577 C38.57559021 14.65719788 38.57559021 14.65719788 37.99168396 15.75892639 C37.59723083 16.47628967 37.20277771 17.19365295 36.79637146 17.93275452 C36.40965271 18.66945374 36.02293396 19.40615295 35.62449646 20.16517639 C33.5382573 24.04012061 31.53696091 27.19265274 28.17137146 30.12025452 C30.11525318 24.94328454 32.65534817 20.09836702 35.16160583 15.17884827 C35.50385193 14.50209045 35.84609802 13.82533264 36.19871521 13.12806702 C36.50543152 12.52623596 36.81214783 11.92440491 37.12815857 11.30433655 C38.57177282 8.2819698 39.86475753 5.20431753 41.17137146 2.12025452 C35.10203336 2.18902996 29.0333909 2.27694706 22.96458435 2.38270569 C20.89955856 2.41598376 18.83444119 2.44400665 16.76927185 2.46669006 C13.80264714 2.50018306 10.83686398 2.55249597 7.87059021 2.60853577 C6.48295723 2.61812065 6.48295723 2.61812065 5.06729126 2.62789917 C4.20662552 2.64769333 3.34595978 2.66748749 2.45921326 2.68788147 C1.70198471 2.69898453 0.94475616 2.71008759 0.1645813 2.7215271 C-2.31880206 3.21831024 -3.22948815 4.20834088 -4.82862854 6.12025452 C-2.53890125 0.16696357 -2.53890125 0.16696357 0 0 Z " fill="#898B8E" transform="translate(570.8286285400391,518.8797454833984)"/>
<path d="M0 0 C24.94279267 0.5812939 54.80585429 15.47374182 72.14453125 33.19140625 C73.48646616 34.74704508 74.75598027 36.36500264 76 38 C72.67396257 36.53594289 70.34247887 34.65384804 67.6875 32.1875 C59.28745354 24.59594088 50.23884543 19.17383451 39.75 14.89453125 C38 14 38 14 37 12 C34.98400021 11.27006904 32.96042281 10.55786237 30.9140625 9.91796875 C28.7736817 9.24372011 26.64484276 8.53254688 24.5234375 7.80078125 C16.4307992 5.01108295 8.395835 2.74146325 0 1 C0 0.67 0 0.34 0 0 Z " fill="#808284" transform="translate(533,345)"/>
<path d="M0 0 C0.495 0.99 0.495 0.99 1 2 C-12.35409741 23.20944883 -32.0360622 43.08484457 -56 52 C-56.66 51.67 -57.32 51.34 -58 51 C-56.25976562 50.07380859 -56.25976562 50.07380859 -54.484375 49.12890625 C-44.01652513 43.48356394 -33.69465733 37.82651626 -25.30078125 29.23828125 C-23 27 -23 27 -21 27 C-21 26.34 -21 25.68 -21 25 C-20.34 24.34 -19.68 23.68 -19 23 C-19 22.34 -19 21.68 -19 21 C-18.21625 20.9175 -17.4325 20.835 -16.625 20.75 C-15.75875 20.5025 -14.8925 20.255 -14 20 C-13.29325371 18.68747118 -12.6332555 17.34952202 -12 16 C-10.92761419 14.53863798 -9.82075363 13.10218247 -8.6875 11.6875 C-5.66579694 7.86928107 -2.79774433 3.98466616 0 0 Z " fill="#8F9194" transform="translate(635,565)"/>
<path d="M0 0 C0.61875 0.350625 1.2375 0.70125 1.875 1.0625 C2.57625 1.371875 3.2775 1.68125 4 2 C4.66 1.67 5.32 1.34 6 1 C6.185625 1.825 6.37125 2.65 6.5625 3.5 C8.13872423 7.33776334 9.98536257 9.40381247 12.75 12.421875 C20.72748465 21.56274283 27.67168948 31.6414024 34.08203125 41.92578125 C35.26084215 43.81523986 36.46191799 45.69128416 37.69921875 47.54296875 C38.87621222 49.31329591 39.95279459 51.14993711 41 53 C40.67 53.99 40.34 54.98 40 56 C39.6690332 55.44763672 39.33806641 54.89527344 38.99707031 54.32617188 C29.56551084 38.65667115 19.5591303 23.90716049 7.47607422 10.15820312 C5.22060875 7.57227586 3.34420117 5.17171063 2 2 C1.34 2 0.68 2 0 2 C0 1.34 0 0.68 0 0 Z " fill="#797B7D" transform="translate(705,304)"/>
<path d="M0 0 C6.25786034 3.9138788 11.69569114 8.18969745 17 13.3125 C17.69279053 13.97330566 18.38558105 14.63411133 19.09936523 15.31494141 C21.07314481 17.20294469 23.03731663 19.10047619 25 21 C25.91910156 21.87785156 26.83820312 22.75570313 27.78515625 23.66015625 C32.68725875 28.4277242 36.95006938 33.49157346 41 39 C40.01 39.495 40.01 39.495 39 40 C37.84852339 38.73427767 36.70400686 37.46222094 35.5625 36.1875 C34.92441406 35.47980469 34.28632812 34.77210938 33.62890625 34.04296875 C32 32 32 32 31 29 C30.01 28.67 29.02 28.34 28 28 C26.5703125 26.546875 26.5703125 26.546875 25.125 24.75 C20.75627148 19.35473964 15.74102907 14.81800249 10.4375 10.375 C9.87353516 9.89804687 9.30957031 9.42109375 8.72851562 8.9296875 C6.39988834 6.96873821 4.07826517 5.05574007 1.59765625 3.2890625 C1.07042969 2.86367188 0.54320312 2.43828125 0 2 C0 1.34 0 0.68 0 0 Z " fill="#77797B" transform="translate(643,304)"/>
<path d="M0 0 C2 1 4 2 6 3 C6 3.66 6 4.32 6 5 C6.53496094 5.21140625 7.06992187 5.4228125 7.62109375 5.640625 C10.91314964 7.52179979 13.41495062 10.0765366 16.0625 12.75 C16.62960693 13.31984619 17.19671387 13.88969238 17.78100586 14.47680664 C25.40018986 22.28091713 32.03977652 30.87383795 38 40 C37.505 40.99 37.505 40.99 37 42 C36.66379639 41.54786133 36.32759277 41.09572266 35.98120117 40.62988281 C26.25688853 27.60250624 16.18265912 15.6135258 4.0625 4.74291992 C2.69269493 3.51247003 1.34402707 2.25855635 0 1 C0 0.67 0 0.34 0 0 Z " fill="#86888A" transform="translate(627,343)"/>
<path d="M0 0 C0.66 0.33 1.32 0.66 2 1 C1.11699219 1.61746094 0.23398437 2.23492187 -0.67578125 2.87109375 C-11.29037084 10.34232616 -21.30578396 18.36131465 -31 27 C-31 26.01 -31 25.02 -31 24 C-29.68 23.34 -28.36 22.68 -27 22 C-27 21.34 -27 20.68 -27 20 C-21.11368887 14.50536356 -14.51668287 9.82823772 -7.80078125 5.41015625 C-6.90939453 4.71212891 -6.90939453 4.71212891 -6 4 C-6 3.34 -6 2.68 -6 2 C-5.38125 1.855625 -4.7625 1.71125 -4.125 1.5625 C-1.96741678 1.06847775 -1.96741678 1.06847775 0 0 Z " fill="#88898B" transform="translate(415,329)"/>
<path d="M0 0 C0.33 0 0.66 0 1 0 C-0.44705464 21.64424275 -0.44705464 21.64424275 -1.93359375 25.2890625 C-3.22916025 28.5825539 -3.91257607 31.84752909 -4.625 35.3125 C-4.88539063 36.56675781 -5.14578125 37.82101562 -5.4140625 39.11328125 C-5.60742188 40.06589844 -5.80078125 41.01851562 -6 42 C-6.66 41.67 -7.32 41.34 -8 41 C-7.86424561 40.32646484 -7.72849121 39.65292969 -7.58862305 38.95898438 C-4.97684586 25.98741556 -2.38581014 13.01527321 0 0 Z " fill="#7F8082" transform="translate(777,521)"/>
<path d="M0 0 C0 0.33 0 0.66 0 1 C-9.52245158 2.04377631 -18.491862 1.85481185 -28 1 C-28.33 1.66 -28.66 2.32 -29 3 C-31.31 2.34 -33.62 1.68 -36 1 C-36 0.67 -36 0.34 -36 0 C-23.99068202 -1.25236836 -11.98395813 -1.68195904 0 0 Z " fill="#939395" transform="translate(530,261)"/>
<path d="M0 0 C0.33 0 0.66 0 1 0 C1.56092819 3.60144435 2.09540625 7.20632564 2.625 10.8125 C2.78484375 11.83666016 2.9446875 12.86082031 3.109375 13.91601562 C3.32207031 15.39038086 3.32207031 15.39038086 3.5390625 16.89453125 C3.67521973 17.80050049 3.81137695 18.70646973 3.95166016 19.63989258 C4 22 4 22 2 25 C-0.38858824 16.63994116 -0.190218 8.61264844 0 0 Z " fill="#8A8A8D" transform="translate(248,513)"/>
<path d="M0 0 C3.33510304 1.11170101 4.10364173 1.99468142 6.3125 4.625 C7.22128906 5.69621094 7.22128906 5.69621094 8.1484375 6.7890625 C8.75945313 7.51867187 9.37046875 8.24828125 10 9 C11.14453013 10.33445216 12.29025017 11.66788527 13.4375 13 C14.283125 13.99 15.12875 14.98 16 16 C15.67 16.66 15.34 17.32 15 18 C12.67965559 15.56986434 10.37014087 13.12969718 8.0625 10.6875 C7.0734668 9.65206055 7.0734668 9.65206055 6.06445312 8.59570312 C5.43603516 7.92861328 4.80761719 7.26152344 4.16015625 6.57421875 C3.28822632 5.65515747 3.28822632 5.65515747 2.39868164 4.7175293 C1 3 1 3 0 0 Z " fill="#929395" transform="translate(609,383)"/>
<path d="M0 0 C6.43681228 0.51085812 11.95942424 1.72942897 18 4 C15 6 15 6 13 6 C13 5.34 13 4.68 13 4 C11.56274129 3.83126522 10.12518162 3.66509263 8.6875 3.5 C7.48673828 3.36078125 7.48673828 3.36078125 6.26171875 3.21875 C3.88103445 2.95186537 3.88103445 2.95186537 1 3 C0.67 2.01 0.34 1.02 0 0 Z " fill="#969899" transform="translate(559,266)"/>
<path d="M0 0 C0.33 0.66 0.66 1.32 1 2 C-2.80351413 7.82665994 -6.76017897 13.48221873 -11 19 C-11.33 18.01 -11.66 17.02 -12 16 C-10.7421875 13.984375 -10.7421875 13.984375 -8.875 11.75 C-5.75175089 7.92574107 -2.836818 4.04031654 0 0 Z " fill="#8B8C8E" transform="translate(635,565)"/>
<path d="M0 0 C6.05166356 4.21782612 10.9121324 10.30708501 14 17 C8.48898107 12.61367881 3.88876535 7.90997773 0 2 C0 1.34 0 0.68 0 0 Z " fill="#78797B" transform="translate(300,647)"/>
<path d="M0 0 C0.99 0.33 1.98 0.66 3 1 C1.41728767 2.27160666 -0.16619635 3.54225285 -1.75 4.8125 C-2.63171875 5.52019531 -3.5134375 6.22789062 -4.421875 6.95703125 C-6.58992929 8.67505002 -8.77728901 10.35373976 -11 12 C-11 11.01 -11 10.02 -11 9 C-8.69921875 6.703125 -8.69921875 6.703125 -5.6875 4.25 C-4.70136719 3.43015625 -3.71523438 2.6103125 -2.69921875 1.765625 C-1.36310547 0.89164062 -1.36310547 0.89164062 0 0 Z " fill="#8A8B8D" transform="translate(433,370)"/>
<path d="M0 0 C3.44428265 1.44781793 5.36130962 3.27694609 7.75 6.125 C8.36359375 6.84945313 8.9771875 7.57390625 9.609375 8.3203125 C10.29773438 9.15175781 10.29773438 9.15175781 11 10 C10.67 10.66 10.34 11.32 10 12 C9.46375 11.278125 8.9275 10.55625 8.375 9.8125 C6.52526856 7.62202856 4.95216984 6.06588641 2.75 4.3125 C1.8425 3.549375 0.935 2.78625 0 2 C0 1.34 0 0.68 0 0 Z " fill="#8C8D8F" transform="translate(553,443)"/>
<path d="M0 0 C0 3.99282941 -1.47808076 5.15331592 -4 8.1875 C-4.7425 9.08855469 -5.485 9.98960937 -6.25 10.91796875 C-6.8275 11.60503906 -7.405 12.29210937 -8 13 C-8.33 12.01 -8.66 11.02 -9 10 C-6.03 6.7 -3.06 3.4 0 0 Z " fill="#838587" transform="translate(439,420)"/>
<path d="M0 0 C0.99 0.33 1.98 0.66 3 1 C2.01 1.495 2.01 1.495 1 2 C0.08719862 4.57437581 0.08719862 4.57437581 -0.625 7.5625 C-0.88539063 8.57441406 -1.14578125 9.58632813 -1.4140625 10.62890625 C-1.60742188 11.41136719 -1.80078125 12.19382812 -2 13 C-2.66 12.34 -3.32 11.68 -4 11 C-3.5247412 9.35303396 -3.04468109 7.70745272 -2.5625 6.0625 C-2.29566406 5.14597656 -2.02882813 4.22945312 -1.75390625 3.28515625 C-1 1 -1 1 0 0 Z " fill="#8A8B8C" transform="translate(685,555)"/>
<path d="M0 0 C0.61875 0.350625 1.2375 0.70125 1.875 1.0625 C2.57625 1.371875 3.2775 1.68125 4 2 C4.66 1.67 5.32 1.34 6 1 C6 2.98 6 4.96 6 7 C4 5.625 4 5.625 2 4 C2 3.34 2 2.68 2 2 C1.34 2 0.68 2 0 2 C0 1.34 0 0.68 0 0 Z " fill="#ACADAE" transform="translate(705,304)"/>
<path d="M0 0 C0.66 0 1.32 0 2 0 C1.67 1.65 1.34 3.3 1 5 C0 2 0 2 0 0 Z " fill="#F7F7F7" transform="translate(720,568)"/>
<path d="M0 0 C0 0.99 0 1.98 0 3 C-0.99 3.495 -0.99 3.495 -2 4 C-2.33 3.01 -2.66 2.02 -3 1 C-2.01 0.67 -1.02 0.34 0 0 Z " fill="#FAFAF9" transform="translate(388,344)"/>
<path d="M0 0 C0.33 0 0.66 0 1 0 C1 1.65 1 3.3 1 5 C0.34 4.34 -0.32 3.68 -1 3 C-0.67 2.01 -0.34 1.02 0 0 Z " fill="#F7F8F8" transform="translate(329,512)"/>
<path d="M0 0 C0.33 0 0.66 0 1 0 C1 2.31 1 4.62 1 7 C0.67 7 0.34 7 0 7 C0 4.69 0 2.38 0 0 Z " fill="#F3F4F4" transform="translate(244,473)"/>
<path d="M0 0 C0.99 0 1.98 0 3 0 C2.67 0.99 2.34 1.98 2 3 C1.34 3 0.68 3 0 3 C0 2.01 0 1.02 0 0 Z " fill="#F2F2F2" transform="translate(296,321)"/>
<path d="M0 0 C1.98 0 3.96 0 6 0 C6 0.33 6 0.66 6 1 C4.02 1 2.04 1 0 1 C0 0.67 0 0.34 0 0 Z " fill="#F7F8F9" transform="translate(536,709)"/>
<path d="M0 0 C0.66 0.66 1.32 1.32 2 2 C1.34 2 0.68 2 0 2 C-0.33 2.66 -0.66 3.32 -1 4 C-0.67 2.68 -0.34 1.36 0 0 Z " fill="#F9F8F8" transform="translate(369,360)"/>
<path d="M0 0 C1.65 0 3.3 0 5 0 C3.02 0.99 3.02 0.99 1 2 C0.67 1.34 0.34 0.68 0 0 Z " fill="#FAFAFA" transform="translate(600,283)"/>
<path d="M0 0 C0.66 0.66 1.32 1.32 2 2 C0.68 1.67 -0.64 1.34 -2 1 C-1.34 0.67 -0.68 0.34 0 0 Z " fill="#FAFBFB" transform="translate(435,661)"/>
<path d="M0 0 C0.66 1.32 1.32 2.64 2 4 C1.34 3.67 0.68 3.34 0 3 C0 2.01 0 1.02 0 0 Z " fill="#F7F9F6" transform="translate(722,418)"/>
<path d="M0 0 C0.66 0 1.32 0 2 0 C1.67 0.99 1.34 1.98 1 3 C0.67 2.01 0.34 1.02 0 0 Z " fill="#F2F2F2" transform="translate(256,393)"/>
<path d="M0 0 C0.99 0 1.98 0 3 0 C2.67 0.99 2.34 1.98 2 3 C2 2.34 2 1.68 2 1 C1.34 0.67 0.68 0.34 0 0 Z " fill="#F8F9F9" transform="translate(667,384)"/>
<path d="M0 0 C0.66 0.66 1.32 1.32 2 2 C1.34 2.66 0.68 3.32 0 4 C0 2.68 0 1.36 0 0 Z " fill="#F4F4F4" transform="translate(724,320)"/>
<path d="M0 0 C1.32 0.33 2.64 0.66 4 1 C3.01 1.495 3.01 1.495 2 2 C1.34 1.34 0.68 0.68 0 0 Z " fill="#FAFAFA" transform="translate(432,313)"/>
<path d="M0 0 C0.99 0 1.98 0 3 0 C3 0.66 3 1.32 3 2 C2.01 1.67 1.02 1.34 0 1 C0 0.67 0 0.34 0 0 Z " fill="#F3F5F5" transform="translate(661,264)"/>
<path d="M0 0 C0.99 0 1.98 0 3 0 C2.67 0.66 2.34 1.32 2 2 C1.34 1.34 0.68 0.68 0 0 Z " fill="#F6F5F6" transform="translate(442,749)"/>
<path d="M0 0 C4 1 4 1 4 1 Z " fill="#F4F4F4" transform="translate(433,747)"/>
<path d="M0 0 C1 4 1 4 1 4 Z " fill="#F2F3F2" transform="translate(400,732)"/>
<path d="M0 0 C0.66 0 1.32 0 2 0 C2 0.66 2 1.32 2 2 C1.34 2 0.68 2 0 2 C0 1.34 0 0.68 0 0 Z " fill="#F4F3F5" transform="translate(402,733)"/>
<path d="M0 0 C0.99 0.33 1.98 0.66 3 1 C2.01 1.33 1.02 1.66 0 2 C0 1.34 0 0.68 0 0 Z " fill="#FCFDFD" transform="translate(476,678)"/>
<path d="M0 0 C0.99 0.33 1.98 0.66 3 1 C2.01 1 1.02 1 0 1 C0 0.67 0 0.34 0 0 Z " fill="#FAF9F8" transform="translate(580,670)"/>
<path d="M0 0 C0.66 0.66 1.32 1.32 2 2 C1.01 2.495 1.01 2.495 0 3 C0 2.01 0 1.02 0 0 Z " fill="#F7F8F9" transform="translate(684,565)"/>
<path d="M0 0 C0.99 0.495 0.99 0.495 2 1 C1.34 1.66 0.68 2.32 0 3 C0 2.01 0 1.02 0 0 Z " fill="#F8F8F9" transform="translate(693,432)"/>
<path d="M0 0 C0.66 0 1.32 0 2 0 C1.67 0.99 1.34 1.98 1 3 C0.67 2.01 0.34 1.02 0 0 Z " fill="#F5F5F6" transform="translate(257,400)"/>
<path d="M0 0 C0.33 0.99 0.66 1.98 1 3 C0.34 2.67 -0.32 2.34 -1 2 C-0.67 1.34 -0.34 0.68 0 0 Z " fill="#F6F5F6" transform="translate(311,396)"/>
<path d="M0 0 C1.485 0.99 1.485 0.99 3 2 C2.01 2 1.02 2 0 2 C0 1.34 0 0.68 0 0 Z " fill="#FBFBFB" transform="translate(560,354)"/>
<path d="M0 0 C0.99 0.495 0.99 0.495 2 1 C1.34 1.66 0.68 2.32 0 3 C0 2.01 0 1.02 0 0 Z " fill="#F7F6F8" transform="translate(484,349)"/>
<path d="M0 0 C0.99 0.33 1.98 0.66 3 1 C2.01 1 1.02 1 0 1 C0 0.67 0 0.34 0 0 Z " fill="#F7F8F7" transform="translate(634,301)"/>
<path d="M0 0 C0.99 0.495 0.99 0.495 2 1 C1.67 1.66 1.34 2.32 1 3 C0.67 2.01 0.34 1.02 0 0 Z " fill="#F3F3F4" transform="translate(320,296)"/>
<path d="M0 0 C1.485 0.99 1.485 0.99 3 2 C2.01 2 1.02 2 0 2 C0 1.34 0 0.68 0 0 Z " fill="#F9F9F9" transform="translate(616,290)"/>
<path d="M0 0 C0.33 0.66 0.66 1.32 1 2 C0.34 1.67 -0.32 1.34 -1 1 C-0.67 0.67 -0.34 0.34 0 0 Z " fill="#F5F4F4" transform="translate(440,748)"/>
<path d="M0 0 C0.66 0 1.32 0 2 0 C1.67 0.66 1.34 1.32 1 2 C0.67 1.34 0.34 0.68 0 0 Z " fill="#F0F1F0" transform="translate(660,718)"/>
<path d="M0 0 C0.66 0.66 1.32 1.32 2 2 C1.34 2 0.68 2 0 2 C0 1.34 0 0.68 0 0 Z " fill="#FBF9FB" transform="translate(542,707)"/>
<path d="M0 0 C0.33 0.66 0.66 1.32 1 2 C0.34 1.67 -0.32 1.34 -1 1 C-0.67 0.67 -0.34 0.34 0 0 Z " fill="#F9FAF9" transform="translate(453,700)"/>
<path d="" fill="#FBFCFB" transform="translate(0,0)"/>
<path d="M0 0 C3 1 3 1 3 1 Z " fill="#F3F5F3" transform="translate(328,683)"/>
<path d="M0 0 C0.99 0.495 0.99 0.495 2 1 C1.01 1.495 1.01 1.495 0 2 C0 1.34 0 0.68 0 0 Z " fill="#FAFAF9" transform="translate(624,682)"/>
<path d="" fill="#FBFAFB" transform="translate(0,0)"/>
<path d="M0 0 C3 1 3 1 3 1 Z " fill="#FAF9FA" transform="translate(480,677)"/>
<path d="M0 0 C0.99 0.495 0.99 0.495 2 1 C1.01 1.495 1.01 1.495 0 2 C0 1.34 0 0.68 0 0 Z " fill="#F8F9F8" transform="translate(660,614)"/>
<path d="M0 0 C0.66 0.66 1.32 1.32 2 2 C1.34 2 0.68 2 0 2 C0 1.34 0 0.68 0 0 Z " fill="#F0F3F4" transform="translate(264,597)"/>
<path d="M0 0 C3 1 3 1 3 1 Z " fill="#FCFBFB" transform="translate(337,555)"/>
<path d="" fill="#F2F2F3" transform="translate(0,0)"/>
<path d="M0 0 C3 1 3 1 3 1 Z " fill="#F9F9F9" transform="translate(499,548)"/>
<path d="" fill="#F1F1F3" transform="translate(0,0)"/>
<path d="" fill="#F5F5F5" transform="translate(0,0)"/>
<path d="" fill="#FAFAF9" transform="translate(0,0)"/>
<path d="M0 0 C0.66 0 1.32 0 2 0 C1.67 0.66 1.34 1.32 1 2 C0.67 1.34 0.34 0.68 0 0 Z " fill="#FBFAFA" transform="translate(416,451)"/>
<path d="" fill="#FCFCFB" transform="translate(0,0)"/>
<path d="" fill="#F8F7F7" transform="translate(0,0)"/>
<path d="" fill="#F8F9FA" transform="translate(0,0)"/>
<path d="M0 0 C0.66 0.66 1.32 1.32 2 2 C1.34 2 0.68 2 0 2 C0 1.34 0 0.68 0 0 Z " fill="#F8F8FA" transform="translate(336,424)"/>
<path d="M0 0 C0.33 0.66 0.66 1.32 1 2 C0.34 1.67 -0.32 1.34 -1 1 C-0.67 0.67 -0.34 0.34 0 0 Z " fill="#F9F9F8" transform="translate(404,404)"/>
<path d="M0 0 C0.66 0.66 1.32 1.32 2 2 C1.34 2 0.68 2 0 2 C0 1.34 0 0.68 0 0 Z " fill="#F6F7F7" transform="translate(620,398)"/>
<path d="M0 0 C0.66 0.66 1.32 1.32 2 2 C1.34 2 0.68 2 0 2 C0 1.34 0 0.68 0 0 Z " fill="#F8F8F8" transform="translate(712,394)"/>
<path d="M0 0 C0.99 0.495 0.99 0.495 2 1 C1.01 1.495 1.01 1.495 0 2 C0 1.34 0 0.68 0 0 Z " fill="#FBFCFA" transform="translate(468,394)"/>
<path d="M0 0 C3 1 3 1 3 1 Z " fill="#F8F8F8" transform="translate(540,388)"/>
<path d="M0 0 C3 1 3 1 3 1 Z " fill="#FAFAFA" transform="translate(533,384)"/>
<path d="" fill="#F7F8F8" transform="translate(0,0)"/>
<path d="M0 0 C0.66 0.66 1.32 1.32 2 2 C1.34 2 0.68 2 0 2 C0 1.34 0 0.68 0 0 Z " fill="#F9F9F8" transform="translate(446,366)"/>
<path d="M0 0 C0.99 0.495 0.99 0.495 2 1 C1.01 1.495 1.01 1.495 0 2 C0 1.34 0 0.68 0 0 Z " fill="#F7F8F8" transform="translate(306,314)"/>
<path d="M0 0 C3 1 3 1 3 1 Z " fill="#F9F9FA" transform="translate(561,306)"/>
<path d="M0 0 C3 1 3 1 3 1 Z " fill="#F5F6F7" transform="translate(469,304)"/>
<path d="M0 0 C3 1 3 1 3 1 Z " fill="#F9F9F8" transform="translate(457,304)"/>
<path d="M0 0 C3 1 3 1 3 1 Z " fill="#F3F2F0" transform="translate(508,263)"/>
<path d="M0 0 C0.99 0.495 0.99 0.495 2 1 C1.01 1.495 1.01 1.495 0 2 C0 1.34 0 0.68 0 0 Z " fill="#F1F2F2" transform="translate(644,252)"/>
<path d="M0 0 C0.99 0.495 0.99 0.495 2 1 C1.01 1.495 1.01 1.495 0 2 C0 1.34 0 0.68 0 0 Z " fill="#F2F3F4" transform="translate(636,248)"/>
<path d="M0 0 C0.66 0.66 1.32 1.32 2 2 C1.34 2 0.68 2 0 2 C0 1.34 0 0.68 0 0 Z " fill="#F2F3F3" transform="translate(605,233)"/>
<path d="M0 0 C0.33 0.66 0.66 1.32 1 2 C0.34 1.67 -0.32 1.34 -1 1 C-0.67 0.67 -0.34 0.34 0 0 Z " fill="#F5F5F5" transform="translate(578,225)"/>
<path d="M0 0 C3 1 3 1 3 1 Z " fill="#F1F1F2" transform="translate(453,224)"/>
<path d="M0 0 C0.33 0.66 0.66 1.32 1 2 C0.34 1.67 -0.32 1.34 -1 1 C-0.67 0.67 -0.34 0.34 0 0 Z " fill="#F3F3F4" transform="translate(443,224)"/>
<path d="M0 0 C2 1 2 1 2 1 Z " fill="#F3F5F5" transform="translate(560,757)"/>
<path d="M0 0 C2 1 2 1 2 1 Z " fill="#F9F7F8" transform="translate(564,756)"/>
<path d="M0 0 C2 1 2 1 2 1 Z " fill="#F3F2F2" transform="translate(406,735)"/>
<path d="M0 0 C2 1 2 1 2 1 Z " fill="#F3F4F3" transform="translate(633,733)"/>
<path d="" fill="#FAFAFA" transform="translate(0,0)"/>
<path d="M0 0 C2 1 2 1 2 1 Z " fill="#F9F9F9" transform="translate(553,707)"/>
<path d="" fill="#F9F9F8" transform="translate(0,0)"/>
<path d="" fill="#F2F3F2" transform="translate(0,0)"/>
<path d="M0 0 C2 1 2 1 2 1 Z " fill="#F0F2F3" transform="translate(345,697)"/>
<path d="M0 0 C2 1 2 1 2 1 Z " fill="#F1F2F1" transform="translate(438,696)"/>
<path d="M0 0 C2 1 2 1 2 1 Z " fill="#F9FAFA" transform="translate(425,690)"/>
<path d="" fill="#F1F2F1" transform="translate(0,0)"/>
<path d="M0 0 C2 1 2 1 2 1 Z " fill="#F7F9F7" transform="translate(486,678)"/>
<path d="M0 0 C2 1 2 1 2 1 Z " fill="#FCFBFA" transform="translate(398,672)"/>
<path d="M0 0 C2 1 2 1 2 1 Z " fill="#F0F1F2" transform="translate(312,671)"/>
<path d="M0 0 C2 1 2 1 2 1 Z " fill="#FCFDFA" transform="translate(448,667)"/>
<path d="" fill="#F9F8F7" transform="translate(0,0)"/>
<path d="" fill="#FBFAFC" transform="translate(0,0)"/>
<path d="" fill="#FCFCFC" transform="translate(0,0)"/>
<path d="M0 0 C2 1 2 1 2 1 Z " fill="#FBFCFC" transform="translate(397,636)"/>
<path d="" fill="#F9F9FA" transform="translate(0,0)"/>
<path d="" fill="#F9FAF9" transform="translate(0,0)"/>
<path d="" fill="#F2F4F3" transform="translate(0,0)"/>
<path d="M0 0 C2 1 2 1 2 1 Z " fill="#F7F8F7" transform="translate(450,610)"/>
<path d="" fill="#F7F8F7" transform="translate(0,0)"/>
<path d="M0 0 C2 1 2 1 2 1 Z " fill="#F8F8F8" transform="translate(354,587)"/>
<path d="" fill="#F3F3F4" transform="translate(0,0)"/>
<path d="" fill="#FAF9FA" transform="translate(0,0)"/>
<path d="" fill="#FAF8F9" transform="translate(0,0)"/>
<path d="" fill="#F7FAF9" transform="translate(0,0)"/>
<path d="" fill="#F9F9F8" transform="translate(0,0)"/>
<path d="" fill="#F9F8F8" transform="translate(0,0)"/>
<path d="M0 0 C2 1 2 1 2 1 Z " fill="#F8F8F9" transform="translate(344,569)"/>
<path d="M0 0 C2 1 2 1 2 1 Z " fill="#F6F6F6" transform="translate(716,558)"/>
<path d="" fill="#FBFBF9" transform="translate(0,0)"/>
<path d="" fill="#F9F9F9" transform="translate(0,0)"/>
<path d="M0 0 C2 1 2 1 2 1 Z " fill="#FAFAFA" transform="translate(500,544)"/>
<path d="" fill="#FCFBFB" transform="translate(0,0)"/>
<path d="" fill="#FCFBFB" transform="translate(0,0)"/>
<path d="M0 0 C2 1 2 1 2 1 Z " fill="#FAFBFA" transform="translate(482,537)"/>
<path d="" fill="#F9F8F8" transform="translate(0,0)"/>
<path d="M0 0 C2 1 2 1 2 1 Z " fill="#FBFCF9" transform="translate(561,523)"/>
<path d="" fill="#FAF9FA" transform="translate(0,0)"/>
<path d="" fill="#F7F8F8" transform="translate(0,0)"/>
<path d="M0 0 C2 1 2 1 2 1 Z " fill="#FAF9F9" transform="translate(462,507)"/>
<path d="" fill="#F2F2F3" transform="translate(0,0)"/>
<path d="" fill="#F9F9FA" transform="translate(0,0)"/>
<path d="M0 0 C2 1 2 1 2 1 Z " fill="#FCFBFB" transform="translate(408,475)"/>
<path d="" fill="#F7F8F8" transform="translate(0,0)"/>
<path d="M0 0 C2 1 2 1 2 1 Z " fill="#F9F8F8" transform="translate(462,470)"/>
<path d="M0 0 C2 1 2 1 2 1 Z " fill="#F4F4F6" transform="translate(611,462)"/>
<path d="" fill="#E9EAE8" transform="translate(0,0)"/>
<path d="" fill="#F8FAF8" transform="translate(0,0)"/>
<path d="" fill="#FAF9F9" transform="translate(0,0)"/>
<path d="" fill="#FAF8F9" transform="translate(0,0)"/>
<path d="" fill="#F8F8F8" transform="translate(0,0)"/>
<path d="" fill="#F7F7F8" transform="translate(0,0)"/>
<path d="" fill="#F4F4F4" transform="translate(0,0)"/>
<path d="" fill="#FAFAF9" transform="translate(0,0)"/>
<path d="" fill="#F4F8F6" transform="translate(0,0)"/>
<path d="" fill="#F8F8F8" transform="translate(0,0)"/>
<path d="" fill="#F8F9F9" transform="translate(0,0)"/>
<path d="M0 0 C2 1 2 1 2 1 Z " fill="#FBFBFA" transform="translate(337,416)"/>
<path d="M0 0 C2 1 2 1 2 1 Z " fill="#F9F8F8" transform="translate(441,414)"/>
<path d="" fill="#FAF9FA" transform="translate(0,0)"/>
<path d="" fill="#F7F8FA" transform="translate(0,0)"/>
<path d="M0 0 C2 1 2 1 2 1 Z " fill="#F3F2F5" transform="translate(766,399)"/>
<path d="M0 0 C2 1 2 1 2 1 Z " fill="#F9F8F7" transform="translate(353,389)"/>
<path d="M0 0 C2 1 2 1 2 1 Z " fill="#F5F6F7" transform="translate(501,384)"/>
<path d="M0 0 C2 1 2 1 2 1 Z " fill="#F5F5F7" transform="translate(264,383)"/>
<path d="" fill="#F9F9F9" transform="translate(0,0)"/>
<path d="M0 0 C2 1 2 1 2 1 Z " fill="#F9F9F7" transform="translate(436,371)"/>
<path d="" fill="#F8F9F7" transform="translate(0,0)"/>
<path d="M0 0 C2 1 2 1 2 1 Z " fill="#F8F7F8" transform="translate(580,364)"/>
<path d="" fill="#F9F9F8" transform="translate(0,0)"/>
<path d="" fill="#F5F5F4" transform="translate(0,0)"/>
<path d="" fill="#FAFBFA" transform="translate(0,0)"/>
<path d="" fill="#FCFCFA" transform="translate(0,0)"/>
<path d="" fill="#F9F7FA" transform="translate(0,0)"/>
<path d="" fill="#FAFAF9" transform="translate(0,0)"/>
<path d="M0 0 C2 1 2 1 2 1 Z " fill="#FAFBF9" transform="translate(538,350)"/>
<path d="" fill="#FCFBFB" transform="translate(0,0)"/>
<path d="" fill="#F6F5F6" transform="translate(0,0)"/>
<path d="" fill="#FBFBFB" transform="translate(0,0)"/>
<path d="" fill="#F5F5F7" transform="translate(0,0)"/>
<path d="" fill="#F2F3F1" transform="translate(0,0)"/>
<path d="M0 0 C2 1 2 1 2 1 Z " fill="#F6F8F8" transform="translate(554,304)"/>
<path d="M0 0 C2 1 2 1 2 1 Z " fill="#FAF8F9" transform="translate(481,301)"/>
<path d="" fill="#F4F2F2" transform="translate(0,0)"/>
<path d="M0 0 C2 1 2 1 2 1 Z " fill="#FBF8FA" transform="translate(420,287)"/>
<path d="" fill="#F9FAFA" transform="translate(0,0)"/>
<path d="" fill="#F2F2F1" transform="translate(0,0)"/>
<path d="M0 0 C2 1 2 1 2 1 Z " fill="#F9F9F9" transform="translate(548,266)"/>
<path d="M0 0 C2 1 2 1 2 1 Z " fill="#FAFAFA" transform="translate(478,266)"/>
<path d="M0 0 C2 1 2 1 2 1 Z " fill="#F3F3F5" transform="translate(357,264)"/>
<path d="M0 0 C2 1 2 1 2 1 Z " fill="#F2F0F3" transform="translate(652,258)"/>
<path d="M0 0 C2 1 2 1 2 1 Z " fill="#F1EFF1" transform="translate(653,256)"/>
<path d="M0 0 C2 1 2 1 2 1 Z " fill="#F1F0F0" transform="translate(378,249)"/>
<path d="M0 0 C2 1 2 1 2 1 Z " fill="#F2F0F0" transform="translate(622,240)"/>
<path d="M0 0 C2 1 2 1 2 1 Z " fill="#F7F7F5" transform="translate(416,235)"/>
<path d="" fill="#F4F3F5" transform="translate(0,0)"/>
<path d="" fill="#F4F6F4" transform="translate(0,0)"/>
<path d="M0 0 C2 1 2 1 2 1 Z " fill="#F7F7F7" transform="translate(436,229)"/>
<path d="M0 0 C2 1 2 1 2 1 Z " fill="#F2F4F4" transform="translate(548,220)"/>
<path d="" fill="#F3F3F4" transform="translate(0,0)"/>
<path d="M0 0 C2 1 2 1 2 1 Z " fill="#F3F4F4" transform="translate(481,219)"/>
<path d="M0 0 C2 1 2 1 2 1 Z " fill="#F4F2F3" transform="translate(522,217)"/>
<path d="" fill="#4B4C4B" transform="translate(0,0)"/>
<path d="" fill="#3C3C3C" transform="translate(0,0)"/>
<path d="" fill="#474848" transform="translate(0,0)"/>
<path d="" fill="#4B4B4A" transform="translate(0,0)"/>
<path d="" fill="#646365" transform="translate(0,0)"/>
<path d="" fill="#747372" transform="translate(0,0)"/>
<path d="" fill="#373837" transform="translate(0,0)"/>
<path d="" fill="#3D3B3D" transform="translate(0,0)"/>
<path d="" fill="#4B4C4A" transform="translate(0,0)"/>
<path d="" fill="#6F6F6E" transform="translate(0,0)"/>
<path d="" fill="#404040" transform="translate(0,0)"/>
<path d="" fill="#424342" transform="translate(0,0)"/>
<path d="" fill="#4E4C4C" transform="translate(0,0)"/>
<path d="" fill="#555455" transform="translate(0,0)"/>
<path d="" fill="#474846" transform="translate(0,0)"/>
<path d="" fill="#3D3D3D" transform="translate(0,0)"/>
<path d="" fill="#F2F0F3" transform="translate(0,0)"/>
<path d="" fill="#F1F1F3" transform="translate(0,0)"/>
<path d="" fill="#F4F2F6" transform="translate(0,0)"/>
<path d="" fill="#F4F4F4" transform="translate(0,0)"/>
<path d="" fill="#F4F5F5" transform="translate(0,0)"/>
<path d="" fill="#F7FAF8" transform="translate(0,0)"/>
<path d="" fill="#F4F7F7" transform="translate(0,0)"/>
<path d="" fill="#F2F2F4" transform="translate(0,0)"/>
<path d="" fill="#F1F2F2" transform="translate(0,0)"/>
<path d="" fill="#F6F6F7" transform="translate(0,0)"/>
<path d="" fill="#F6F5F7" transform="translate(0,0)"/>
<path d="" fill="#F2F6F4" transform="translate(0,0)"/>
<path d="" fill="#F5F5F7" transform="translate(0,0)"/>
<path d="" fill="#F1F0EF" transform="translate(0,0)"/>
<path d="" fill="#F1F2F1" transform="translate(0,0)"/>
<path d="" fill="#F1F2F2" transform="translate(0,0)"/>
<path d="" fill="#F1F3F2" transform="translate(0,0)"/>
<path d="" fill="#F3F3F4" transform="translate(0,0)"/>
<path d="" fill="#F0F0F1" transform="translate(0,0)"/>
<path d="" fill="#F3F2F2" transform="translate(0,0)"/>
<path d="" fill="#F3F2F3" transform="translate(0,0)"/>
<path d="" fill="#F5F5F8" transform="translate(0,0)"/>
<path d="" fill="#F2F6F5" transform="translate(0,0)"/>
<path d="" fill="#EFF3F3" transform="translate(0,0)"/>
<path d="" fill="#F1F2F2" transform="translate(0,0)"/>
<path d="" fill="#F9F8F8" transform="translate(0,0)"/>
<path d="" fill="#F4F4F1" transform="translate(0,0)"/>
<path d="" fill="#F0F3F1" transform="translate(0,0)"/>
<path d="" fill="#F0F1F0" transform="translate(0,0)"/>
<path d="" fill="#F7F8F6" transform="translate(0,0)"/>
<path d="" fill="#F2F3F2" transform="translate(0,0)"/>
<path d="" fill="#F3F6F4" transform="translate(0,0)"/>
<path d="" fill="#F3F3F2" transform="translate(0,0)"/>
<path d="" fill="#F1F1F1" transform="translate(0,0)"/>
<path d="" fill="#6E6F71" transform="translate(0,0)"/>
<path d="" fill="#F2F1F3" transform="translate(0,0)"/>
<path d="" fill="#F0F3F1" transform="translate(0,0)"/>
<path d="" fill="#F1F2F2" transform="translate(0,0)"/>
<path d="" fill="#F3F5F7" transform="translate(0,0)"/>
<path d="" fill="#F2EFEF" transform="translate(0,0)"/>
<path d="" fill="#FBFBFB" transform="translate(0,0)"/>
<path d="" fill="#FAFAFC" transform="translate(0,0)"/>
<path d="" fill="#F3F5F5" transform="translate(0,0)"/>
<path d="" fill="#F4F2F1" transform="translate(0,0)"/>
<path d="" fill="#FCFFFE" transform="translate(0,0)"/>
<path d="" fill="#FAF9FA" transform="translate(0,0)"/>
<path d="" fill="#F9F9F8" transform="translate(0,0)"/>
<path d="" fill="#F9FAF9" transform="translate(0,0)"/>
<path d="" fill="#F8F9FA" transform="translate(0,0)"/>
<path d="" fill="#FCFBFB" transform="translate(0,0)"/>
<path d="" fill="#F9F9FA" transform="translate(0,0)"/>
<path d="" fill="#F3F3F3" transform="translate(0,0)"/>
<path d="" fill="#F5F3F3" transform="translate(0,0)"/>
<path d="" fill="#F4F5F1" transform="translate(0,0)"/>
<path d="" fill="#F0F0F0" transform="translate(0,0)"/>
<path d="" fill="#F3F2F3" transform="translate(0,0)"/>
<path d="" fill="#F4F3F4" transform="translate(0,0)"/>
<path d="" fill="#FBFBF9" transform="translate(0,0)"/>
<path d="" fill="#FBFAFB" transform="translate(0,0)"/>
<path d="" fill="#F2F2F0" transform="translate(0,0)"/>
<path d="" fill="#F9F9F7" transform="translate(0,0)"/>
<path d="" fill="#FBFBFC" transform="translate(0,0)"/>
<path d="" fill="#F0F1F2" transform="translate(0,0)"/>
<path d="" fill="#F8F9F8" transform="translate(0,0)"/>
<path d="" fill="#F8F7F7" transform="translate(0,0)"/>
<path d="" fill="#FAFAFA" transform="translate(0,0)"/>
<path d="" fill="#F3F3F2" transform="translate(0,0)"/>
<path d="" fill="#F7F7F5" transform="translate(0,0)"/>
<path d="" fill="#F9F7F8" transform="translate(0,0)"/>
<path d="" fill="#F4F4F2" transform="translate(0,0)"/>
<path d="" fill="#F7F9F8" transform="translate(0,0)"/>
<path d="" fill="#FAF9F9" transform="translate(0,0)"/>
<path d="" fill="#F9FAFB" transform="translate(0,0)"/>
<path d="" fill="#FCF9FC" transform="translate(0,0)"/>
<path d="" fill="#F9FAFB" transform="translate(0,0)"/>
<path d="" fill="#F9FBFB" transform="translate(0,0)"/>
<path d="" fill="#F7F8F9" transform="translate(0,0)"/>
<path d="" fill="#F6F5F6" transform="translate(0,0)"/>
<path d="" fill="#F5F3F5" transform="translate(0,0)"/>
<path d="" fill="#F0F1F2" transform="translate(0,0)"/>
<path d="" fill="#FBFBFB" transform="translate(0,0)"/>
<path d="" fill="#FAFAFC" transform="translate(0,0)"/>
<path d="" fill="#F7F7F8" transform="translate(0,0)"/>
<path d="" fill="#F9F8F7" transform="translate(0,0)"/>
<path d="" fill="#FAFBF9" transform="translate(0,0)"/>
<path d="" fill="#F9F8F8" transform="translate(0,0)"/>
<path d="" fill="#F7F7F7" transform="translate(0,0)"/>
<path d="" fill="#F8FAFB" transform="translate(0,0)"/>
<path d="" fill="#F4F2F2" transform="translate(0,0)"/>
<path d="" fill="#FBFAF9" transform="translate(0,0)"/>
<path d="" fill="#F8F9F9" transform="translate(0,0)"/>
<path d="" fill="#FCFAFC" transform="translate(0,0)"/>
<path d="" fill="#F3F2F2" transform="translate(0,0)"/>
<path d="" fill="#F9FAFB" transform="translate(0,0)"/>
<path d="" fill="#F5F4F4" transform="translate(0,0)"/>
<path d="" fill="#F8FDFB" transform="translate(0,0)"/>
<path d="" fill="#F5F6F3" transform="translate(0,0)"/>
<path d="" fill="#FAFDFC" transform="translate(0,0)"/>
<path d="" fill="#FDFFFB" transform="translate(0,0)"/>
<path d="" fill="#F8F8F6" transform="translate(0,0)"/>
<path d="" fill="#FAF8FA" transform="translate(0,0)"/>
<path d="" fill="#F6F5F5" transform="translate(0,0)"/>
<path d="" fill="#F8FAF8" transform="translate(0,0)"/>
<path d="" fill="#FAFBFA" transform="translate(0,0)"/>
<path d="" fill="#FAFAFA" transform="translate(0,0)"/>
<path d="" fill="#F8FDF9" transform="translate(0,0)"/>
<path d="" fill="#F4F5F5" transform="translate(0,0)"/>
<path d="" fill="#FBFBFB" transform="translate(0,0)"/>
<path d="" fill="#FAFCFA" transform="translate(0,0)"/>
<path d="" fill="#FCFCFB" transform="translate(0,0)"/>
<path d="" fill="#F9FAFA" transform="translate(0,0)"/>
<path d="" fill="#F0F2F1" transform="translate(0,0)"/>
<path d="" fill="#F9FBF9" transform="translate(0,0)"/>
<path d="" fill="#F8F6F6" transform="translate(0,0)"/>
<path d="" fill="#F3F3F4" transform="translate(0,0)"/>
<path d="" fill="#F9F9F9" transform="translate(0,0)"/>
<path d="" fill="#F4F5F4" transform="translate(0,0)"/>
<path d="" fill="#F2F3F2" transform="translate(0,0)"/>
<path d="" fill="#FCFDFA" transform="translate(0,0)"/>
<path d="" fill="#FBFBFB" transform="translate(0,0)"/>
<path d="" fill="#FBF9F9" transform="translate(0,0)"/>
<path d="" fill="#F8F8F8" transform="translate(0,0)"/>
<path d="" fill="#F3F4F4" transform="translate(0,0)"/>
<path d="" fill="#FBFCF9" transform="translate(0,0)"/>
<path d="" fill="#F8F9F7" transform="translate(0,0)"/>
<path d="" fill="#F6F5F3" transform="translate(0,0)"/>
<path d="" fill="#FCFCFC" transform="translate(0,0)"/>
<path d="" fill="#F2F0F0" transform="translate(0,0)"/>
<path d="" fill="#F8F7F5" transform="translate(0,0)"/>
<path d="" fill="#F8F9F6" transform="translate(0,0)"/>
<path d="" fill="#FAF9FA" transform="translate(0,0)"/>
<path d="" fill="#FCFAFB" transform="translate(0,0)"/>
<path d="" fill="#F9F7F6" transform="translate(0,0)"/>
<path d="" fill="#FCFBFC" transform="translate(0,0)"/>
<path d="" fill="#FBFBFB" transform="translate(0,0)"/>
<path d="" fill="#F2F0F1" transform="translate(0,0)"/>
<path d="" fill="#F2F3F4" transform="translate(0,0)"/>
<path d="" fill="#F2F2F1" transform="translate(0,0)"/>
<path d="" fill="#F1F3F4" transform="translate(0,0)"/>
<path d="" fill="#FDFCFC" transform="translate(0,0)"/>
<path d="" fill="#FBFDFF" transform="translate(0,0)"/>
<path d="" fill="#F9FAFA" transform="translate(0,0)"/>
<path d="" fill="#8F8F8F" transform="translate(0,0)"/>
<path d="" fill="#FBFBFC" transform="translate(0,0)"/>
<path d="" fill="#FBFBF9" transform="translate(0,0)"/>
<path d="" fill="#FCFAF8" transform="translate(0,0)"/>
<path d="" fill="#FAF7F8" transform="translate(0,0)"/>
<path d="" fill="#FAFBFA" transform="translate(0,0)"/>
<path d="" fill="#FAFAFA" transform="translate(0,0)"/>
<path d="" fill="#F4F4F5" transform="translate(0,0)"/>
<path d="" fill="#FBFBFC" transform="translate(0,0)"/>
<path d="" fill="#FCFCFB" transform="translate(0,0)"/>
<path d="" fill="#F2F2F2" transform="translate(0,0)"/>
<path d="" fill="#686869" transform="translate(0,0)"/>
<path d="" fill="#FBFBFA" transform="translate(0,0)"/>
<path d="" fill="#FBFBFA" transform="translate(0,0)"/>
<path d="" fill="#FAF9F8" transform="translate(0,0)"/>
<path d="" fill="#F4F4F5" transform="translate(0,0)"/>
<path d="" fill="#F9FCF7" transform="translate(0,0)"/>
<path d="" fill="#FBFAF9" transform="translate(0,0)"/>
<path d="" fill="#F7FAFA" transform="translate(0,0)"/>
<path d="" fill="#F7F7F6" transform="translate(0,0)"/>
<path d="" fill="#F8F6F9" transform="translate(0,0)"/>
<path d="" fill="#F1F3F5" transform="translate(0,0)"/>
<path d="" fill="#F7F7F6" transform="translate(0,0)"/>
<path d="" fill="#F7F8F6" transform="translate(0,0)"/>
<path d="" fill="#F7FAFA" transform="translate(0,0)"/>
<path d="" fill="#FAF8F9" transform="translate(0,0)"/>
<path d="" fill="#FAF9F7" transform="translate(0,0)"/>
<path d="" fill="#FAF8FA" transform="translate(0,0)"/>
<path d="" fill="#FBFBFB" transform="translate(0,0)"/>
<path d="" fill="#FBFBF9" transform="translate(0,0)"/>
<path d="" fill="#F6F7F7" transform="translate(0,0)"/>
<path d="" fill="#FBFAFB" transform="translate(0,0)"/>
<path d="" fill="#F5F9F5" transform="translate(0,0)"/>
<path d="" fill="#FAFEFA" transform="translate(0,0)"/>
<path d="" fill="#FAFAFD" transform="translate(0,0)"/>
<path d="" fill="#FAFAFC" transform="translate(0,0)"/>
<path d="" fill="#EFEFF3" transform="translate(0,0)"/>
<path d="" fill="#F3F2F4" transform="translate(0,0)"/>
<path d="" fill="#FBFDFD" transform="translate(0,0)"/>
<path d="" fill="#FAFBFA" transform="translate(0,0)"/>
<path d="" fill="#F3F3F3" transform="translate(0,0)"/>
<path d="" fill="#F2F1F2" transform="translate(0,0)"/>
<path d="" fill="#FCFAFA" transform="translate(0,0)"/>
<path d="" fill="#FAFBFC" transform="translate(0,0)"/>
<path d="" fill="#F5F5F8" transform="translate(0,0)"/>
<path d="" fill="#FAFAF9" transform="translate(0,0)"/>
<path d="" fill="#F8F9F9" transform="translate(0,0)"/>
<path d="" fill="#F8F9F9" transform="translate(0,0)"/>
<path d="" fill="#FDFCFD" transform="translate(0,0)"/>
<path d="" fill="#F1F1F1" transform="translate(0,0)"/>
<path d="" fill="#F7F8F7" transform="translate(0,0)"/>
<path d="" fill="#FAFAFA" transform="translate(0,0)"/>
<path d="" fill="#EFF0EF" transform="translate(0,0)"/>
<path d="" fill="#F9FAF9" transform="translate(0,0)"/>
<path d="" fill="#F1F1F2" transform="translate(0,0)"/>
<path d="" fill="#F8F9F8" transform="translate(0,0)"/>
<path d="" fill="#FAFAF9" transform="translate(0,0)"/>
<path d="" fill="#FBFCFB" transform="translate(0,0)"/>
<path d="" fill="#FCFCFC" transform="translate(0,0)"/>
<path d="" fill="#FAFAFB" transform="translate(0,0)"/>
<path d="" fill="#F3F8F4" transform="translate(0,0)"/>
<path d="" fill="#F2F2F2" transform="translate(0,0)"/>
<path d="" fill="#F8F9F8" transform="translate(0,0)"/>
<path d="" fill="#FBFAFB" transform="translate(0,0)"/>
<path d="" fill="#F8F9F8" transform="translate(0,0)"/>
<path d="" fill="#F6F5F6" transform="translate(0,0)"/>
<path d="" fill="#F8F4F7" transform="translate(0,0)"/>
<path d="" fill="#F8F1F7" transform="translate(0,0)"/>
<path d="" fill="#F9FBFB" transform="translate(0,0)"/>
<path d="" fill="#F7F7FA" transform="translate(0,0)"/>
<path d="" fill="#F6F5F5" transform="translate(0,0)"/>
<path d="" fill="#FDFCFC" transform="translate(0,0)"/>
<path d="" fill="#FBFCFB" transform="translate(0,0)"/>
<path d="" fill="#F6F7F4" transform="translate(0,0)"/>
<path d="" fill="#F8F8FA" transform="translate(0,0)"/>
<path d="" fill="#FBF9F8" transform="translate(0,0)"/>
<path d="" fill="#FAF9FB" transform="translate(0,0)"/>
<path d="" fill="#FDFBFA" transform="translate(0,0)"/>
<path d="" fill="#F3F2F1" transform="translate(0,0)"/>
<path d="" fill="#F1F1F0" transform="translate(0,0)"/>
<path d="" fill="#FAFAF9" transform="translate(0,0)"/>
<path d="" fill="#FBF7FA" transform="translate(0,0)"/>
<path d="" fill="#FDFBFB" transform="translate(0,0)"/>
<path d="" fill="#F9FAFA" transform="translate(0,0)"/>
<path d="" fill="#F5F5F6" transform="translate(0,0)"/>
<path d="" fill="#FAFBFA" transform="translate(0,0)"/>
<path d="" fill="#FAF9F7" transform="translate(0,0)"/>
<path d="" fill="#F6F5F6" transform="translate(0,0)"/>
<path d="" fill="#FAFAFB" transform="translate(0,0)"/>
<path d="" fill="#F9F8F9" transform="translate(0,0)"/>
<path d="" fill="#F2F3F3" transform="translate(0,0)"/>
<path d="" fill="#F5F6F7" transform="translate(0,0)"/>
<path d="" fill="#FBF9FB" transform="translate(0,0)"/>
<path d="" fill="#F3F3F2" transform="translate(0,0)"/>
<path d="" fill="#FAFBFA" transform="translate(0,0)"/>
<path d="" fill="#F8F9F9" transform="translate(0,0)"/>
<path d="" fill="#FAFBFC" transform="translate(0,0)"/>
<path d="" fill="#FCFAFC" transform="translate(0,0)"/>
<path d="" fill="#F2F4F4" transform="translate(0,0)"/>
<path d="" fill="#FBFBFC" transform="translate(0,0)"/>
<path d="" fill="#F7FBF8" transform="translate(0,0)"/>
<path d="" fill="#F9F7F8" transform="translate(0,0)"/>
<path d="" fill="#F1F2F0" transform="translate(0,0)"/>
<path d="" fill="#F9F9F9" transform="translate(0,0)"/>
<path d="" fill="#F4F7F4" transform="translate(0,0)"/>
<path d="" fill="#F6F8F8" transform="translate(0,0)"/>
<path d="" fill="#FAFBFC" transform="translate(0,0)"/>
<path d="" fill="#F8F7F8" transform="translate(0,0)"/>
<path d="" fill="#FAFAF9" transform="translate(0,0)"/>
<path d="" fill="#FAF8F9" transform="translate(0,0)"/>
<path d="" fill="#F9F9F9" transform="translate(0,0)"/>
<path d="" fill="#FAF9F9" transform="translate(0,0)"/>
<path d="" fill="#F8F7F8" transform="translate(0,0)"/>
<path d="" fill="#FBFBFA" transform="translate(0,0)"/>
<path d="" fill="#FAFBFB" transform="translate(0,0)"/>
<path d="" fill="#FBF9F9" transform="translate(0,0)"/>
<path d="" fill="#FBFBFC" transform="translate(0,0)"/>
<path d="" fill="#F9F9FA" transform="translate(0,0)"/>
<path d="" fill="#F9FAF9" transform="translate(0,0)"/>
<path d="" fill="#F8F9F9" transform="translate(0,0)"/>
<path d="" fill="#FAF9FA" transform="translate(0,0)"/>
<path d="" fill="#F9F9F8" transform="translate(0,0)"/>
<path d="" fill="#FBFAF9" transform="translate(0,0)"/>
<path d="" fill="#FDFCFC" transform="translate(0,0)"/>
<path d="" fill="#FCFCFB" transform="translate(0,0)"/>
<path d="" fill="#FAFAF9" transform="translate(0,0)"/>
<path d="" fill="#FCFCFC" transform="translate(0,0)"/>
<path d="" fill="#F3F5F5" transform="translate(0,0)"/>
<path d="" fill="#FBFBFB" transform="translate(0,0)"/>
<path d="" fill="#F9F9FA" transform="translate(0,0)"/>
<path d="" fill="#F1F1F2" transform="translate(0,0)"/>
<path d="" fill="#F9FAF9" transform="translate(0,0)"/>
<path d="" fill="#FEFDFD" transform="translate(0,0)"/>
<path d="" fill="#F7F8F6" transform="translate(0,0)"/>
<path d="" fill="#FBFBFA" transform="translate(0,0)"/>
<path d="" fill="#FAFBFC" transform="translate(0,0)"/>
<path d="" fill="#F3F3F1" transform="translate(0,0)"/>
<path d="" fill="#F9F9F9" transform="translate(0,0)"/>
<path d="" fill="#FAFAF8" transform="translate(0,0)"/>
<path d="" fill="#FAFAFB" transform="translate(0,0)"/>
<path d="" fill="#F6F5F7" transform="translate(0,0)"/>
<path d="" fill="#FBF7F9" transform="translate(0,0)"/>
<path d="" fill="#F7FBF8" transform="translate(0,0)"/>
<path d="" fill="#FAF9F8" transform="translate(0,0)"/>
<path d="" fill="#F8F9F8" transform="translate(0,0)"/>
<path d="" fill="#F4F4F4" transform="translate(0,0)"/>
<path d="" fill="#F7F7F7" transform="translate(0,0)"/>
<path d="" fill="#F7F7FA" transform="translate(0,0)"/>
<path d="" fill="#F5F5F6" transform="translate(0,0)"/>
<path d="" fill="#F8F7F8" transform="translate(0,0)"/>
<path d="" fill="#FBF9FB" transform="translate(0,0)"/>
<path d="" fill="#FBF9FB" transform="translate(0,0)"/>
<path d="" fill="#F8F7F9" transform="translate(0,0)"/>
<path d="" fill="#F5F6F7" transform="translate(0,0)"/>
<path d="" fill="#F8F8F9" transform="translate(0,0)"/>
<path d="" fill="#FBFBFB" transform="translate(0,0)"/>
<path d="" fill="#FCFFFC" transform="translate(0,0)"/>
<path d="" fill="#FAF9FB" transform="translate(0,0)"/>
<path d="" fill="#F8F8FA" transform="translate(0,0)"/>
<path d="" fill="#FBFAFC" transform="translate(0,0)"/>
<path d="" fill="#F7F8F8" transform="translate(0,0)"/>
<path d="" fill="#FBFAF9" transform="translate(0,0)"/>
<path d="" fill="#F8F7F7" transform="translate(0,0)"/>
<path d="" fill="#F6F6F5" transform="translate(0,0)"/>
<path d="" fill="#F8F7F8" transform="translate(0,0)"/>
<path d="" fill="#F6F8F7" transform="translate(0,0)"/>
<path d="" fill="#f2f0ed" transform="translate(0,0)"/>
<path d="" fill="#FAF9FB" transform="translate(0,0)"/>
<path d="" fill="#FCFBFC" transform="translate(0,0)"/>
<path d="" fill="#FBFAFA" transform="translate(0,0)"/>
<path d="" fill="#F9FAF9" transform="translate(0,0)"/>
<path d="" fill="#F5F7F6" transform="translate(0,0)"/>
<path d="" fill="#F9F9F7" transform="translate(0,0)"/>
<path d="" fill="#FAFAFA" transform="translate(0,0)"/>
<path d="" fill="#FDFDFC" transform="translate(0,0)"/>
<path d="" fill="#F9F8F6" transform="translate(0,0)"/>
<path d="" fill="#F0F0F0" transform="translate(0,0)"/>
<path d="" fill="#FCFAFA" transform="translate(0,0)"/>
<path d="" fill="#F9F8F9" transform="translate(0,0)"/>
<path d="" fill="#F7F8F6" transform="translate(0,0)"/>
<path d="" fill="#F8F8F9" transform="translate(0,0)"/>
<path d="" fill="#FBFCFB" transform="translate(0,0)"/>
<path d="" fill="#F9F8F9" transform="translate(0,0)"/>
<path d="" fill="#F9F7F7" transform="translate(0,0)"/>
<path d="" fill="#EDEEEE" transform="translate(0,0)"/>
<path d="" fill="#F0F1F1" transform="translate(0,0)"/>
<path d="" fill="#F5F5F5" transform="translate(0,0)"/>
<path d="" fill="#EFF0F1" transform="translate(0,0)"/>
<path d="" fill="#F6F7F7" transform="translate(0,0)"/>
<path d="" fill="#F7F7F6" transform="translate(0,0)"/>
<path d="" fill="#F7F6F6" transform="translate(0,0)"/>
<path d="" fill="#F8F8F8" transform="translate(0,0)"/>
<path d="" fill="#F6F7F7" transform="translate(0,0)"/>
<path d="" fill="#FCFAFB" transform="translate(0,0)"/>
<path d="" fill="#F4F6F5" transform="translate(0,0)"/>
<path d="" fill="#FAFBFB" transform="translate(0,0)"/>
<path d="" fill="#F5F7F6" transform="translate(0,0)"/>
<path d="" fill="#FAFAFA" transform="translate(0,0)"/>
<path d="" fill="#858585" transform="translate(0,0)"/>
<path d="" fill="#FCFAF9" transform="translate(0,0)"/>
<path d="" fill="#FCFAFB" transform="translate(0,0)"/>
<path d="" fill="#FBFDFD" transform="translate(0,0)"/>
<path d="" fill="#F7F9F9" transform="translate(0,0)"/>
<path d="" fill="#FCFCFC" transform="translate(0,0)"/>
<path d="" fill="#FEFDFC" transform="translate(0,0)"/>
<path d="" fill="#FBFBFB" transform="translate(0,0)"/>
<path d="" fill="#FEFAFC" transform="translate(0,0)"/>
<path d="" fill="#FBFBFA" transform="translate(0,0)"/>
<path d="" fill="#F9FAFD" transform="translate(0,0)"/>
<path d="" fill="#F9FBF9" transform="translate(0,0)"/>
<path d="" fill="#FBFAF9" transform="translate(0,0)"/>
<path d="" fill="#FAFAFA" transform="translate(0,0)"/>
<path d="" fill="#F7F6F8" transform="translate(0,0)"/>
<path d="" fill="#FCFBFB" transform="translate(0,0)"/>
<path d="" fill="#FDFBFC" transform="translate(0,0)"/>
<path d="" fill="#FCFCFA" transform="translate(0,0)"/>
<path d="" fill="#F3F3F4" transform="translate(0,0)"/>
<path d="" fill="#F9F8F8" transform="translate(0,0)"/>
<path d="" fill="#F9F9F7" transform="translate(0,0)"/>
<path d="" fill="#F3F3F4" transform="translate(0,0)"/>
<path d="" fill="#FAFCFA" transform="translate(0,0)"/>
<path d="" fill="#FBFCFB" transform="translate(0,0)"/>
<path d="" fill="#6D6D6E" transform="translate(0,0)"/>
<path d="" fill="#F1F1F0" transform="translate(0,0)"/>
<path d="" fill="#F5F7F5" transform="translate(0,0)"/>
<path d="" fill="#F5F4F5" transform="translate(0,0)"/>
<path d="" fill="#FBFAF9" transform="translate(0,0)"/>
<path d="" fill="#F7F5F8" transform="translate(0,0)"/>
<path d="" fill="#F5F5F5" transform="translate(0,0)"/>
<path d="" fill="#F3F6F6" transform="translate(0,0)"/>
<path d="" fill="#F9FBF8" transform="translate(0,0)"/>
<path d="" fill="#F4F5F4" transform="translate(0,0)"/>
<path d="" fill="#F6F6F7" transform="translate(0,0)"/>
<path d="" fill="#F6F7F5" transform="translate(0,0)"/>
<path d="" fill="#FEFCFD" transform="translate(0,0)"/>
<path d="" fill="#F6F6F5" transform="translate(0,0)"/>
<path d="" fill="#F8F9F9" transform="translate(0,0)"/>
<path d="" fill="#FAFCFA" transform="translate(0,0)"/>
<path d="" fill="#F2F0F2" transform="translate(0,0)"/>
<path d="" fill="#F6F6F5" transform="translate(0,0)"/>
<path d="" fill="#F8FBFB" transform="translate(0,0)"/>
<path d="" fill="#F9FDFC" transform="translate(0,0)"/>
<path d="" fill="#FAF9F8" transform="translate(0,0)"/>
<path d="" fill="#FBFBF9" transform="translate(0,0)"/>
<path d="" fill="#F4F6F7" transform="translate(0,0)"/>
<path d="" fill="#F7F8F7" transform="translate(0,0)"/>
<path d="" fill="#FBFCFB" transform="translate(0,0)"/>
<path d="" fill="#F8F8F7" transform="translate(0,0)"/>
<path d="" fill="#FAFAF8" transform="translate(0,0)"/>
<path d="" fill="#FBFBFA" transform="translate(0,0)"/>
<path d="" fill="#F9F8FA" transform="translate(0,0)"/>
<path d="" fill="#FAFCFB" transform="translate(0,0)"/>
<path d="" fill="#F8F7F9" transform="translate(0,0)"/>
<path d="" fill="#F9FCFD" transform="translate(0,0)"/>
<path d="" fill="#F8FAFA" transform="translate(0,0)"/>
<path d="" fill="#F4F2F4" transform="translate(0,0)"/>
<path d="" fill="#FDFAF8" transform="translate(0,0)"/>
<path d="" fill="#FAF8F9" transform="translate(0,0)"/>
<path d="" fill="#F7F6F7" transform="translate(0,0)"/>
<path d="" fill="#FBFCFA" transform="translate(0,0)"/>
<path d="" fill="#F5F6F6" transform="translate(0,0)"/>
<path d="" fill="#F1F3F2" transform="translate(0,0)"/>
<path d="" fill="#F9FCFC" transform="translate(0,0)"/>
<path d="" fill="#FBFBFB" transform="translate(0,0)"/>
<path d="" fill="#F3F3F1" transform="translate(0,0)"/>
<path d="" fill="#F8F8F6" transform="translate(0,0)"/>
<path d="" fill="#F9FBF9" transform="translate(0,0)"/>
<path d="" fill="#F8F7F9" transform="translate(0,0)"/>
<path d="" fill="#F7F7F6" transform="translate(0,0)"/>
<path d="" fill="#FCFCFC" transform="translate(0,0)"/>
<path d="" fill="#F9FCFA" transform="translate(0,0)"/>
<path d="" fill="#F3F4F5" transform="translate(0,0)"/>
<path d="" fill="#F9FBFA" transform="translate(0,0)"/>
<path d="" fill="#FAFBFB" transform="translate(0,0)"/>
<path d="" fill="#F1F2F3" transform="translate(0,0)"/>
<path d="" fill="#FBFBFC" transform="translate(0,0)"/>
<path d="" fill="#FAFAFA" transform="translate(0,0)"/>
<path d="" fill="#F6F8F7" transform="translate(0,0)"/>
<path d="" fill="#F8FAF8" transform="translate(0,0)"/>
<path d="" fill="#FCFAFB" transform="translate(0,0)"/>
<path d="" fill="#F6F7F8" transform="translate(0,0)"/>
<path d="" fill="#FBFAFC" transform="translate(0,0)"/>
<path d="" fill="#F5F5F4" transform="translate(0,0)"/>
<path d="" fill="#F1F2F4" transform="translate(0,0)"/>
<path d="" fill="#F0F0F2" transform="translate(0,0)"/>
<path d="" fill="#F4F5F5" transform="translate(0,0)"/>
<path d="" fill="#FAFAF9" transform="translate(0,0)"/>
<path d="" fill="#FAFAFB" transform="translate(0,0)"/>
<path d="" fill="#F4F6F5" transform="translate(0,0)"/>
<path d="" fill="#FBFBFB" transform="translate(0,0)"/>
<path d="" fill="#F8F8F5" transform="translate(0,0)"/>
<path d="" fill="#FBFBF9" transform="translate(0,0)"/>
<path d="" fill="#F6F4F6" transform="translate(0,0)"/>
<path d="" fill="#F8F9FA" transform="translate(0,0)"/>
<path d="" fill="#FCFBFB" transform="translate(0,0)"/>
<path d="" fill="#FAF7F9" transform="translate(0,0)"/>
<path d="" fill="#FBF9F9" transform="translate(0,0)"/>
<path d="" fill="#F9FAF7" transform="translate(0,0)"/>
<path d="" fill="#FBF9F9" transform="translate(0,0)"/>
<path d="" fill="#F8F9F8" transform="translate(0,0)"/>
<path d="" fill="#FAF9FB" transform="translate(0,0)"/>
<path d="" fill="#F4F6F5" transform="translate(0,0)"/>
<path d="" fill="#F9F9F9" transform="translate(0,0)"/>
<path d="" fill="#FAFAFB" transform="translate(0,0)"/>
<path d="" fill="#F7FAF8" transform="translate(0,0)"/>
<path d="" fill="#FBFEFB" transform="translate(0,0)"/>
<path d="" fill="#FAFBFC" transform="translate(0,0)"/>
<path d="" fill="#F8F7F5" transform="translate(0,0)"/>
<path d="" fill="#F6F5F7" transform="translate(0,0)"/>
<path d="" fill="#F7F7F8" transform="translate(0,0)"/>
<path d="" fill="#F7F9F8" transform="translate(0,0)"/>
<path d="" fill="#FAF8FB" transform="translate(0,0)"/>
<path d="" fill="#F7FAF8" transform="translate(0,0)"/>
<path d="" fill="#F1F3F4" transform="translate(0,0)"/>
<path d="" fill="#F2F3F3" transform="translate(0,0)"/>
<path d="" fill="#FBF9FA" transform="translate(0,0)"/>
<path d="" fill="#F4F3F5" transform="translate(0,0)"/>
<path d="" fill="#F0EFEE" transform="translate(0,0)"/>
<path d="" fill="#F6F2F5" transform="translate(0,0)"/>
<path d="" fill="#FAF8F9" transform="translate(0,0)"/>
<path d="" fill="#FAFAFA" transform="translate(0,0)"/>
<path d="" fill="#FAF7F8" transform="translate(0,0)"/>
<path d="" fill="#F9F9F8" transform="translate(0,0)"/>
<path d="" fill="#FBFBFB" transform="translate(0,0)"/>
<path d="" fill="#F6F6F6" transform="translate(0,0)"/>
<path d="" fill="#F7F5F4" transform="translate(0,0)"/>
<path d="" fill="#FDFEFC" transform="translate(0,0)"/>
<path d="" fill="#F2F0F1" transform="translate(0,0)"/>
<path d="" fill="#F9F8F8" transform="translate(0,0)"/>
<path d="" fill="#EEEDED" transform="translate(0,0)"/>
<path d="" fill="#F6F6F7" transform="translate(0,0)"/>
<path d="" fill="#F8FAFC" transform="translate(0,0)"/>
<path d="" fill="#FAF7F9" transform="translate(0,0)"/>
<path d="" fill="#F8F9FA" transform="translate(0,0)"/>
<path d="" fill="#F9F7F7" transform="translate(0,0)"/>
<path d="" fill="#FBFAF9" transform="translate(0,0)"/>
<path d="" fill="#F3F2F3" transform="translate(0,0)"/>
<path d="" fill="#FAF9F9" transform="translate(0,0)"/>
<path d="" fill="#F7F4F5" transform="translate(0,0)"/>
<path d="" fill="#F5F6F6" transform="translate(0,0)"/>
<path d="" fill="#FCFDFA" transform="translate(0,0)"/>
<path d="" fill="#F3F6F5" transform="translate(0,0)"/>
<path d="" fill="#F9F8FA" transform="translate(0,0)"/>
<path d="" fill="#F4F4F5" transform="translate(0,0)"/>
<path d="" fill="#F9F9FB" transform="translate(0,0)"/>
<path d="" fill="#FCFCFC" transform="translate(0,0)"/>
<path d="" fill="#FBFCFF" transform="translate(0,0)"/>
<path d="" fill="#F9F9F9" transform="translate(0,0)"/>
<path d="" fill="#F7FAFC" transform="translate(0,0)"/>
<path d="" fill="#F7F7F6" transform="translate(0,0)"/>
<path d="" fill="#F9FAF9" transform="translate(0,0)"/>
<path d="" fill="#FAF9FA" transform="translate(0,0)"/>
<path d="" fill="#F0EFEE" transform="translate(0,0)"/>
<path d="" fill="#F8F9F9" transform="translate(0,0)"/>
<path d="" fill="#F6F6F5" transform="translate(0,0)"/>
<path d="" fill="#FAF9FD" transform="translate(0,0)"/>
<path d="" fill="#F9FAFA" transform="translate(0,0)"/>
<path d="" fill="#F6F6F5" transform="translate(0,0)"/>
<path d="" fill="#616362" transform="translate(0,0)"/>
<path d="" fill="#929293" transform="translate(0,0)"/>
<path d="" fill="#F8F8F6" transform="translate(0,0)"/>
<path d="" fill="#FDFDFE" transform="translate(0,0)"/>
<path d="" fill="#F8F8F8" transform="translate(0,0)"/>
<path d="" fill="#F7F8F6" transform="translate(0,0)"/>
<path d="" fill="#F7F7F6" transform="translate(0,0)"/>
<path d="" fill="#F4F3F2" transform="translate(0,0)"/>
<path d="" fill="#FAF9F7" transform="translate(0,0)"/>
<path d="" fill="#FAFAF9" transform="translate(0,0)"/>
<path d="" fill="#F4F4F3" transform="translate(0,0)"/>
<path d="" fill="#FAF9F9" transform="translate(0,0)"/>
<path d="" fill="#FAFAFA" transform="translate(0,0)"/>
<path d="" fill="#F9F8F6" transform="translate(0,0)"/>
<path d="" fill="#F8F9F7" transform="translate(0,0)"/>
<path d="" fill="#FAFAFA" transform="translate(0,0)"/>
<path d="" fill="#F5F6F5" transform="translate(0,0)"/>
<path d="" fill="#F5F3F2" transform="translate(0,0)"/>
<path d="" fill="#FAF9F9" transform="translate(0,0)"/>
<path d="" fill="#F9F9FA" transform="translate(0,0)"/>
<path d="" fill="#F7F9F9" transform="translate(0,0)"/>
<path d="" fill="#FAF9F7" transform="translate(0,0)"/>
<path d="" fill="#FBF9F8" transform="translate(0,0)"/>
<path d="" fill="#F6F7F8" transform="translate(0,0)"/>
<path d="" fill="#F3F2F2" transform="translate(0,0)"/>
<path d="" fill="#FAFBFB" transform="translate(0,0)"/>
<path d="" fill="#FCFAFB" transform="translate(0,0)"/>
<path d="" fill="#FCFAFA" transform="translate(0,0)"/>
<path d="" fill="#F8F8F9" transform="translate(0,0)"/>
<path d="" fill="#FEFDFC" transform="translate(0,0)"/>
<path d="" fill="#F3F4F4" transform="translate(0,0)"/>
<path d="" fill="#F4F3F3" transform="translate(0,0)"/>
<path d="" fill="#FAFAF9" transform="translate(0,0)"/>
<path d="" fill="#F4F5F4" transform="translate(0,0)"/>
<path d="" fill="#F3F3F3" transform="translate(0,0)"/>
<path d="" fill="#F1F3F3" transform="translate(0,0)"/>
<path d="" fill="#F9FAFA" transform="translate(0,0)"/>
<path d="" fill="#F6F5F5" transform="translate(0,0)"/>
<path d="" fill="#F8F6F8" transform="translate(0,0)"/>
<path d="" fill="#F9F9FA" transform="translate(0,0)"/>
<path d="" fill="#626260" transform="translate(0,0)"/>
<path d="" fill="#F5F5F6" transform="translate(0,0)"/>
<path d="" fill="#FCFCFC" transform="translate(0,0)"/>
<path d="" fill="#F2F1F1" transform="translate(0,0)"/>
<path d="" fill="#FCFCFB" transform="translate(0,0)"/>
<path d="" fill="#F7F5F5" transform="translate(0,0)"/>
<path d="" fill="#F8F9F9" transform="translate(0,0)"/>
<path d="" fill="#FAF9FA" transform="translate(0,0)"/>
<path d="" fill="#F6F7F7" transform="translate(0,0)"/>
<path d="" fill="#FBFAFB" transform="translate(0,0)"/>
<path d="" fill="#FAFAF9" transform="translate(0,0)"/>
<path d="" fill="#F9F7F8" transform="translate(0,0)"/>
<path d="" fill="#F2F3F4" transform="translate(0,0)"/>
<path d="" fill="#F3F4F1" transform="translate(0,0)"/>
<path d="" fill="#F9FAFA" transform="translate(0,0)"/>
<path d="" fill="#F9F9FA" transform="translate(0,0)"/>
<path d="" fill="#F9F9F8" transform="translate(0,0)"/>
<path d="" fill="#FAFBFA" transform="translate(0,0)"/>
<path d="" fill="#FAF9FA" transform="translate(0,0)"/>
<path d="" fill="#FBFBF9" transform="translate(0,0)"/>
<path d="" fill="#F2F3F5" transform="translate(0,0)"/>
<path d="" fill="#F6F9F9" transform="translate(0,0)"/>
<path d="" fill="#F2F3F3" transform="translate(0,0)"/>
<path d="" fill="#F4F5F6" transform="translate(0,0)"/>
<path d="" fill="#FBFAFA" transform="translate(0,0)"/>
<path d="" fill="#5E5F5C" transform="translate(0,0)"/>
<path d="" fill="#FAFBFA" transform="translate(0,0)"/>
<path d="" fill="#FBFBFB" transform="translate(0,0)"/>
<path d="" fill="#FAFAF9" transform="translate(0,0)"/>
<path d="" fill="#F9F9F7" transform="translate(0,0)"/>
<path d="" fill="#FCFBF9" transform="translate(0,0)"/>
<path d="" fill="#FAFAFA" transform="translate(0,0)"/>
<path d="" fill="#F8F8F8" transform="translate(0,0)"/>
<path d="" fill="#F2F2F3" transform="translate(0,0)"/>
<path d="" fill="#F8F9F9" transform="translate(0,0)"/>
<path d="" fill="#F0F0F2" transform="translate(0,0)"/>
<path d="" fill="#F9F9FA" transform="translate(0,0)"/>
<path d="" fill="#F3F1F4" transform="translate(0,0)"/>
<path d="" fill="#FBFBFC" transform="translate(0,0)"/>
<path d="" fill="#F0F1F1" transform="translate(0,0)"/>
<path d="" fill="#F9F8FC" transform="translate(0,0)"/>
<path d="" fill="#FCF9FB" transform="translate(0,0)"/>
<path d="" fill="#F3F5F3" transform="translate(0,0)"/>
<path d="" fill="#F7F9FA" transform="translate(0,0)"/>
<path d="" fill="#F9F2F7" transform="translate(0,0)"/>
<path d="" fill="#FBFBFB" transform="translate(0,0)"/>
<path d="" fill="#F9F8F9" transform="translate(0,0)"/>
<path d="" fill="#F5F3F4" transform="translate(0,0)"/>
<path d="" fill="#F9F9F9" transform="translate(0,0)"/>
<path d="" fill="#F9F9F9" transform="translate(0,0)"/>
<path d="" fill="#FBFBFA" transform="translate(0,0)"/>
<path d="" fill="#FAF9FA" transform="translate(0,0)"/>
<path d="" fill="#F4F4F6" transform="translate(0,0)"/>
<path d="" fill="#F6F7F6" transform="translate(0,0)"/>
<path d="" fill="#FCFAFA" transform="translate(0,0)"/>
<path d="" fill="#FBFBFB" transform="translate(0,0)"/>
<path d="" fill="#F2F4F6" transform="translate(0,0)"/>
<path d="" fill="#FBFCFB" transform="translate(0,0)"/>
<path d="" fill="#F9F8F9" transform="translate(0,0)"/>
<path d="" fill="#F8F8F8" transform="translate(0,0)"/>
<path d="" fill="#FDFDFD" transform="translate(0,0)"/>
<path d="" fill="#F7F9F8" transform="translate(0,0)"/>
<path d="" fill="#FAFAF9" transform="translate(0,0)"/>
<path d="" fill="#F9F9FA" transform="translate(0,0)"/>
<path d="" fill="#F2F2F2" transform="translate(0,0)"/>
<path d="" fill="#FAFBFA" transform="translate(0,0)"/>
<path d="" fill="#F3F3F6" transform="translate(0,0)"/>
<path d="" fill="#F5F0F3" transform="translate(0,0)"/>
<path d="" fill="#F5F4F5" transform="translate(0,0)"/>
<path d="" fill="#F2F2F3" transform="translate(0,0)"/>
<path d="" fill="#FBFCFC" transform="translate(0,0)"/>
<path d="" fill="#F5F7F6" transform="translate(0,0)"/>
<path d="" fill="#FAF9F9" transform="translate(0,0)"/>
<path d="" fill="#F8F7FB" transform="translate(0,0)"/>
<path d="" fill="#FBF9F9" transform="translate(0,0)"/>
<path d="" fill="#FBFBFC" transform="translate(0,0)"/>
<path d="" fill="#F7F5F8" transform="translate(0,0)"/>
<path d="" fill="#FAF9FB" transform="translate(0,0)"/>
<path d="" fill="#F6F7F7" transform="translate(0,0)"/>
<path d="" fill="#F3F5F7" transform="translate(0,0)"/>
<path d="" fill="#FCFEF9" transform="translate(0,0)"/>
<path d="" fill="#F5F9F7" transform="translate(0,0)"/>
<path d="" fill="#F7F7F8" transform="translate(0,0)"/>
<path d="" fill="#F9F9F9" transform="translate(0,0)"/>
<path d="" fill="#FBFCFB" transform="translate(0,0)"/>
<path d="" fill="#F4F5F4" transform="translate(0,0)"/>
<path d="" fill="#F7F8F7" transform="translate(0,0)"/>
<path d="" fill="#F2F3F3" transform="translate(0,0)"/>
<path d="" fill="#F8F9FC" transform="translate(0,0)"/>
<path d="" fill="#F2F2F2" transform="translate(0,0)"/>
<path d="" fill="#FBFBFC" transform="translate(0,0)"/>
<path d="" fill="#FAF7FC" transform="translate(0,0)"/>
<path d="" fill="#FAF9F8" transform="translate(0,0)"/>
<path d="" fill="#F6F9F8" transform="translate(0,0)"/>
<path d="" fill="#FAFBFA" transform="translate(0,0)"/>
<path d="" fill="#FAF8F9" transform="translate(0,0)"/>
<path d="" fill="#F3F1F0" transform="translate(0,0)"/>
<path d="" fill="#F4F3F2" transform="translate(0,0)"/>
<path d="" fill="#F5F6F5" transform="translate(0,0)"/>
<path d="" fill="#F7F7F8" transform="translate(0,0)"/>
<path d="" fill="#F9FBFC" transform="translate(0,0)"/>
<path d="" fill="#F4F4F5" transform="translate(0,0)"/>
<path d="" fill="#F4F4F2" transform="translate(0,0)"/>
<path d="" fill="#F3F4F5" transform="translate(0,0)"/>
<path d="" fill="#F3F3F4" transform="translate(0,0)"/>
<path d="" fill="#F4F5F3" transform="translate(0,0)"/>
<path d="" fill="#F0F2F0" transform="translate(0,0)"/>
<path d="" fill="#F3F4F3" transform="translate(0,0)"/>
<path d="" fill="#F1F2F1" transform="translate(0,0)"/>
<path d="" fill="#F6F6F4" transform="translate(0,0)"/>
<path d="" fill="#F6F6F5" transform="translate(0,0)"/>
<path d="" fill="#F7F7F7" transform="translate(0,0)"/>
<path d="" fill="#F4F4F4" transform="translate(0,0)"/>
<path d="" fill="#F3F1F2" transform="translate(0,0)"/>
<path d="" fill="#F4F5F5" transform="translate(0,0)"/>
<path d="" fill="#F3F6F8" transform="translate(0,0)"/>
<path d="" fill="#F3F2F2" transform="translate(0,0)"/>
<path d="" fill="#F4F3F7" transform="translate(0,0)"/>
<path d="" fill="#F0F0F0" transform="translate(0,0)"/>
<path d="" fill="#F0EFF0" transform="translate(0,0)"/>
<path d="" fill="#F1F0F2" transform="translate(0,0)"/>
<path d="" fill="#F8F9F9" transform="translate(0,0)"/>
<path d="" fill="#F5F6F6" transform="translate(0,0)"/>
<path d="" fill="#F4F5F4" transform="translate(0,0)"/>
<path d="" fill="#F4F4F2" transform="translate(0,0)"/>
<path d="" fill="#F4F4F3" transform="translate(0,0)"/>
<path d="" fill="#F4F5F6" transform="translate(0,0)"/>
<path d="" fill="#F7F7F6" transform="translate(0,0)"/>
<path d="" fill="#F8F9F8" transform="translate(0,0)"/>
<path d="" fill="#F6F6F5" transform="translate(0,0)"/>
<path d="" fill="#F3F6F4" transform="translate(0,0)"/>
<path d="" fill="#F5F4F3" transform="translate(0,0)"/>
<path d="" fill="#F3F4F1" transform="translate(0,0)"/>
<path d="" fill="#F3F4F2" transform="translate(0,0)"/>
<path d="" fill="#5B5D5C" transform="translate(0,0)"/>
<path d="" fill="#525151" transform="translate(0,0)"/>
<path d="" fill="#7E7E7F" transform="translate(0,0)"/>
<path d="" fill="#464746" transform="translate(0,0)"/>
<path d="" fill="#323231" transform="translate(0,0)"/>
<path d="" fill="#363535" transform="translate(0,0)"/>
<path d="" fill="#4C4E4B" transform="translate(0,0)"/>
<path d="" fill="#737373" transform="translate(0,0)"/>
<path d="" fill="#373637" transform="translate(0,0)"/>
<path d="" fill="#686868" transform="translate(0,0)"/>
<path d="" fill="#282A2A" transform="translate(0,0)"/>
<path d="" fill="#403E3F" transform="translate(0,0)"/>
<path d="" fill="#545554" transform="translate(0,0)"/>
<path d="" fill="#646464" transform="translate(0,0)"/>
<path d="" fill="#6A6A68" transform="translate(0,0)"/>
<path d="" fill="#777776" transform="translate(0,0)"/>
</svg>
