<svg width="1200" height="900" viewBox="0 0 1200 900" fill="none" xmlns="http://www.w3.org/2000/svg">
  <rect width="1200" height="900" rx="44" fill="#07110F"/>
  <path d="M0 664C153 587 293 614 420 666C547 718 693 799 861 727C1029 655 1085 498 1200 452V900H0V664Z" fill="#11332E"/>
  <path d="M0 128C132 62 286 51 427 120C568 189 649 302 818 283C987 264 1061 119 1200 92V0H0V128Z" fill="#10231F"/>
  <g opacity=".16">
    <path d="M95 115H1110" stroke="#F7FBF8"/>
    <path d="M95 235H1110" stroke="#F7FBF8"/>
    <path d="M95 355H1110" stroke="#F7FBF8"/>
    <path d="M95 475H1110" stroke="#F7FBF8"/>
    <path d="M95 595H1110" stroke="#F7FBF8"/>
    <path d="M95 715H1110" stroke="#F7FBF8"/>
    <path d="M190 70V816" stroke="#F7FBF8"/>
    <path d="M340 70V816" stroke="#F7FBF8"/>
    <path d="M490 70V816" stroke="#F7FBF8"/>
    <path d="M640 70V816" stroke="#F7FBF8"/>
    <path d="M790 70V816" stroke="#F7FBF8"/>
    <path d="M940 70V816" stroke="#F7FBF8"/>
  </g>
  <path d="M161 650C251 443 391 361 577 410C753 456 831 344 954 194" stroke="#D4FF62" stroke-width="8" stroke-linecap="round"/>
  <path d="M161 650C251 443 391 361 577 410C753 456 831 344 954 194" stroke="#D4FF62" stroke-width="32" stroke-linecap="round" opacity=".14"/>
  <circle cx="161" cy="650" r="23" fill="#D4FF62"/>
  <circle cx="577" cy="410" r="23" fill="#D4FF62"/>
  <circle cx="954" cy="194" r="23" fill="#D4FF62"/>
  <circle cx="161" cy="650" r="58" stroke="#D4FF62" stroke-width="2" opacity=".55"/>
  <circle cx="577" cy="410" r="78" stroke="#D4FF62" stroke-width="2" opacity=".55"/>
  <circle cx="954" cy="194" r="64" stroke="#D4FF62" stroke-width="2" opacity=".55"/>
  <rect x="110" y="118" width="310" height="146" rx="18" fill="#F7FBF8" fill-opacity=".08" stroke="#F7FBF8" stroke-opacity=".16"/>
  <rect x="720" y="592" width="344" height="166" rx="18" fill="#F7FBF8" fill-opacity=".08" stroke="#F7FBF8" stroke-opacity=".16"/>
  <rect x="454" y="650" width="174" height="18" rx="9" fill="#F7FBF8" fill-opacity=".26"/>
  <rect x="454" y="690" width="242" height="18" rx="9" fill="#F7FBF8" fill-opacity=".14"/>
  <rect x="454" y="730" width="126" height="18" rx="9" fill="#D4FF62"/>
  <rect x="148" y="158" width="102" height="22" rx="11" fill="#D4FF62"/>
  <rect x="148" y="205" width="220" height="18" rx="9" fill="#F7FBF8" fill-opacity=".2"/>
  <rect x="762" y="636" width="166" height="18" rx="9" fill="#D4FF62"/>
  <rect x="762" y="681" width="246" height="18" rx="9" fill="#F7FBF8" fill-opacity=".2"/>
  <text x="94" y="848" fill="#F7FBF8" fill-opacity=".7" font-family="Arial, Helvetica, sans-serif" font-size="42" font-weight="800">ROOT CAUSE MAP</text>
  <text x="778" y="848" fill="#D4FF62" font-family="Arial, Helvetica, sans-serif" font-size="42" font-weight="800">P1 ACTIVE</text>
</svg>
