<svg xmlns="http://www.w3.org/2000/svg" viewBox="0 0 256 256" role="img" aria-labelledby="github-title">
  <title id="github-title">GitHub</title>
  <rect width="256" height="256" fill="#000"/>
  <circle cx="128" cy="128" r="102" fill="#fff"/>
  <path fill="#000" d="M128 47c-45.3 0-82 36.7-82 82 0 36.3 23.5 67 56.2 77.9 4.1.8 5.6-1.8 5.6-4v-14.1c-22.9 5-27.7-11-27.7-11-3.7-9.5-9.1-12-9.1-12-7.5-5.1.6-5 .6-5 8.3.6 12.6 8.5 12.6 8.5 7.4 12.6 19.3 9 24 6.9.7-5.3 2.9-9 5.2-11-18.3-2.1-37.5-9.1-37.5-40.6 0-9 3.2-16.3 8.5-22-1-2.1-3.7-10.5.8-21.8 0 0 6.9-2.2 22.6 8.4 6.6-1.8 13.6-2.7 20.6-2.8 7 .1 14 1 20.6 2.8 15.7-10.6 22.6-8.4 22.6-8.4 4.5 11.3 1.8 19.7.9 21.8 5.3 5.7 8.5 13 8.5 22 0 31.6-19.2 38.5-37.5 40.6 2.9 2.5 5.6 7.5 5.6 15.2v22.5c0 2.2 1.5 4.8 5.6 4C186.5 196 210 165.3 210 129c0-45.3-36.7-82-82-82Z"/>
</svg>
