<svg width="282" height="523" viewBox="0 0 282 523" fill="none" xmlns="http://www.w3.org/2000/svg">
<path d="M279 114.112C278.015 113.008 276.053 108.559 272.474 102.426C268.442 95.5183 262.475 87.372 259.151 82.9117C252.949 74.5892 247.698 66.9661 239.666 58.012C233.695 51.3567 226.451 45.3559 221.031 40.5388C214.646 34.8633 210.904 33.4692 191.844 24.0133C182.191 19.2247 178.58 19.33 174.997 18.2205C166.986 15.7399 155.645 12.6395 144.299 9.86296C139.839 8.77153 132.961 8.17919 126.757 7.25367C120.575 6.33144 117.132 4.83396 113.916 3.90844C110.742 2.99544 95.0407 2.6038 85.1683 3.52931C81.0619 3.91428 76.1621 5.94903 70.4985 8.16804C62.9372 11.1306 57.4315 12.6172 51.4903 16.8991C45.5288 21.1956 41.3662 23.4112 38.279 26.1933C33.7271 30.2953 25.6118 41.9214 20.3888 49.4148C14.7351 57.5258 12.0044 66.4978 8.90983 73.5729C6.44826 79.2008 4.83797 87.6842 3.72006 93.2764C2.50406 99.3592 2.85387 109.941 4.57145 120.769C6.38446 132.198 14.4327 140.093 18.8785 146.8C21.6958 151.051 25.7895 152.76 30.598 157.209C34.021 160.377 37.3832 162.796 40.6 165.394C43.7405 167.931 47.9848 172.809 52.1974 177.654C55.5394 181.498 57.8758 187.684 59.9746 192.15C62.2511 196.994 64.5388 201.065 65.901 205.531C67.3089 210.147 68.0036 214.446 68.618 218.912C69.2736 223.677 69.9729 229.678 70.1024 255.994C70.1529 266.255 67.5149 272.051 65.305 278.368C60.2535 292.808 55.1809 293.617 51.8531 299.008C48.7569 304.024 45.8082 309.964 41.7364 316.66C38.8132 321.467 36.1839 327.069 34.0776 332.461C32.4114 336.726 31.9787 341.565 31.6049 346.957C30.9507 356.39 31.9639 370.557 33.4483 375.023C35.1756 380.22 37.398 383.938 39.123 389.33C40.7158 394.308 42.5804 399.17 43.5687 405.125C44.4997 410.734 46.0303 416.632 46.6559 421.856C48.1403 434.252 46.7855 457.511 45.3048 466.259C44.1589 473.029 43.5724 479.077 42.7136 486.888C41.66 496.471 38.4049 503.608 36.6688 511.051C36.1765 512.919 35.4435 514.759 35.066 516.259C34.6884 517.759 34.6884 518.863 34.6884 520" stroke="#1D459B" stroke-width="6" stroke-linecap="round"/>
</svg>
